<svg id="svg" version="1.1" width="400" height="273.2807215332582" xmlns="http://www.w3.org/2000/svg" xmlns:xlink="http://www.w3.org/1999/xlink" style="display: block;"><g id="svgg"><path id="path0" d="" stroke="none" fill="#000000" fill-rule="evenodd"></path><path id="path1" d="" stroke="none" fill="#555555" fill-rule="evenodd"></path><path id="path2" d="M164.475 53.744 L 133.151 85.068 133.151 86.830 C 133.151 87.800,133.305 88.867,133.493 89.203 C 134.030 90.161,194.753 150.787,195.647 151.257 C 197.766 152.371,198.114 152.427,199.453 151.872 C 200.100 151.603,202.504 149.322,208.231 143.541 C 210.540 141.210,212.524 139.214,212.640 139.106 C 212.756 138.998,224.139 127.646,237.936 113.881 L 263.021 88.852 263.021 86.833 C 263.021 84.824,263.015 84.808,261.904 83.760 C 259.969 81.935,253.933 75.935,252.176 74.089 C 250.409 72.232,246.939 68.900,246.774 68.900 C 246.624 68.900,244.156 66.430,244.156 66.280 C 244.156 66.207,243.817 65.802,243.404 65.381 C 242.990 64.960,241.775 63.703,240.703 62.588 C 239.631 61.473,237.733 59.638,236.486 58.510 C 235.239 57.382,233.840 56.034,233.378 55.515 C 231.010 52.856,229.887 51.678,227.888 49.754 C 226.685 48.596,225.215 47.232,224.621 46.723 C 224.028 46.213,223.148 45.366,222.667 44.839 C 222.185 44.313,221.071 43.097,220.192 42.137 C 219.312 41.176,217.923 39.762,217.106 38.992 C 216.288 38.223,215.169 37.133,214.619 36.569 C 214.069 36.005,213.546 35.543,213.458 35.543 C 213.298 35.543,210.682 32.880,209.295 31.306 C 208.016 29.854,205.595 27.341,205.475 27.341 C 205.376 27.341,203.394 25.478,200.954 23.091 C 200.338 22.489,200.037 22.420,198.034 22.420 L 195.800 22.420 164.475 53.744 M225.837 59.114 C 225.837 59.295,226.483 60.058,227.273 60.809 C 228.062 61.559,229.046 62.596,229.460 63.113 L 230.212 64.053 230.212 69.589 C 230.212 73.489,230.313 75.317,230.554 75.775 C 231.078 76.773,232.542 78.195,233.044 78.195 C 233.291 78.195,233.493 78.319,233.493 78.469 C 233.493 78.619,233.677 78.742,233.903 78.742 C 234.129 78.742,234.313 78.865,234.313 79.016 C 234.313 79.170,235.082 79.289,236.074 79.289 C 237.043 79.289,237.911 79.166,238.004 79.016 C 238.097 78.865,238.417 78.742,238.715 78.742 C 239.340 78.742,241.969 76.392,241.969 75.834 C 241.969 75.629,242.021 75.461,242.085 75.461 C 242.203 75.461,247.488 80.826,249.694 83.185 C 250.362 83.900,251.036 84.484,251.192 84.484 C 251.347 84.484,251.541 84.739,251.622 85.051 C 251.704 85.363,252.027 85.685,252.341 85.767 C 254.221 86.259,254.863 85.562,225.872 114.547 C 210.824 129.591,198.382 141.900,198.224 141.900 C 197.906 141.900,194.327 138.519,190.462 134.567 C 189.091 133.166,186.566 130.644,184.850 128.962 C 183.135 127.281,180.613 124.760,179.246 123.359 C 177.879 121.958,175.359 119.436,173.647 117.754 C 168.848 113.040,166.577 110.765,164.021 108.112 C 161.043 105.021,158.078 102.256,157.743 102.256 C 157.601 102.256,157.485 102.146,157.485 102.012 C 157.485 101.878,156.900 101.161,156.186 100.419 C 149.147 93.107,147.031 91.046,146.567 91.046 C 146.406 91.046,146.275 90.914,146.275 90.753 C 146.275 90.374,145.579 89.679,145.201 89.679 C 145.040 89.679,144.908 89.537,144.908 89.365 C 144.908 89.192,144.477 88.632,143.951 88.121 C 143.424 87.610,142.994 87.082,142.994 86.947 C 142.994 86.684,160.348 69.173,160.609 69.173 C 160.695 69.173,160.766 72.047,160.766 75.560 L 160.766 81.947 161.468 82.982 C 162.250 84.135,163.198 85.008,163.682 85.022 C 163.857 85.027,164.051 85.181,164.112 85.365 C 164.183 85.577,165.009 85.738,166.377 85.808 C 169.401 85.960,171.057 85.062,172.367 82.555 L 173.043 81.263 173.062 71.481 C 173.073 66.101,173.156 61.403,173.247 61.042 C 173.569 59.757,176.093 59.447,177.360 60.537 L 178.127 61.197 178.270 88.220 C 178.349 103.082,178.519 115.550,178.648 115.926 C 178.932 116.749,180.425 118.387,180.892 118.387 C 181.076 118.387,181.277 118.541,181.340 118.729 C 181.421 118.970,182.224 119.070,184.086 119.070 L 186.717 119.070 187.950 117.859 C 188.629 117.193,189.495 116.012,189.876 115.235 L 190.567 113.821 190.567 95.362 C 190.567 77.101,190.573 76.894,191.134 76.182 C 192.008 75.070,193.461 75.200,194.532 76.485 L 195.352 77.469 195.494 83.916 C 195.652 91.069,195.685 91.220,197.473 92.844 C 199.598 94.774,203.162 95.165,204.992 93.669 C 205.879 92.943,206.699 91.981,206.699 91.664 C 206.699 91.474,206.792 91.319,206.905 91.319 C 207.664 91.319,207.775 89.502,207.788 76.856 C 207.796 69.729,207.879 63.590,207.973 63.214 C 208.449 61.318,210.681 60.876,212.053 62.406 L 212.850 63.295 212.918 81.066 C 212.990 100.001,212.952 99.475,214.354 100.900 C 215.862 102.432,221.538 103.260,221.955 102.009 C 222.010 101.844,222.229 101.709,222.442 101.709 C 222.989 101.709,223.698 100.934,224.554 99.403 L 225.290 98.086 225.290 78.434 C 225.290 65.516,225.384 58.783,225.564 58.783 C 225.714 58.783,225.837 58.932,225.837 59.114 M70.433 174.869 C 69.941 176.150,70.265 233.407,70.767 233.861 C 71.726 234.728,78.417 234.512,79.212 233.587 L 79.836 232.861 79.836 219.432 L 79.836 206.003 80.793 205.487 C 81.319 205.204,81.750 204.896,81.750 204.804 C 81.750 204.711,82.180 204.404,82.707 204.120 C 83.233 203.837,83.664 203.501,83.664 203.375 C 83.664 203.248,83.799 203.144,83.964 203.144 C 84.258 203.144,85.787 202.528,86.736 202.028 C 89.267 200.692,92.686 202.659,92.686 205.450 C 92.686 205.986,92.809 206.425,92.960 206.425 C 93.138 206.425,93.233 210.823,93.234 219.070 C 93.235 233.186,93.196 232.889,95.166 233.871 C 96.180 234.377,101.010 234.506,101.301 234.035 C 101.396 233.882,101.591 233.830,101.735 233.919 C 102.780 234.565,104.474 230.899,103.554 229.980 C 103.293 229.718,103.192 226.513,103.124 216.323 C 103.073 208.644,102.929 202.898,102.783 202.748 C 102.643 202.605,102.529 202.028,102.529 201.465 C 102.529 200.903,102.415 200.372,102.277 200.286 C 102.138 200.201,101.944 199.763,101.845 199.313 C 101.746 198.864,101.545 198.496,101.398 198.496 C 101.250 198.496,101.197 198.388,101.279 198.255 C 101.361 198.122,101.184 197.703,100.885 197.323 C 100.586 196.944,100.342 196.544,100.342 196.435 C 100.342 196.080,98.326 194.326,97.478 193.941 C 97.023 193.735,96.466 193.461,96.241 193.331 C 94.829 192.518,88.325 192.069,87.902 192.755 C 87.809 192.905,87.456 193.028,87.117 193.028 C 86.779 193.028,86.263 193.209,85.972 193.429 C 85.680 193.650,85.195 193.843,84.894 193.857 C 84.593 193.872,83.609 194.306,82.707 194.823 C 81.805 195.340,80.858 195.837,80.602 195.927 C 80.347 196.018,80.085 196.294,80.019 196.542 C 79.953 196.790,79.885 192.652,79.868 187.346 C 79.825 174.354,79.862 174.436,74.058 174.436 C 71.156 174.436,70.572 174.506,70.433 174.869 M284.894 178.264 C 284.894 178.414,284.667 178.537,284.390 178.537 C 282.843 178.537,281.892 182.730,282.755 185.751 C 283.418 188.076,284.140 188.380,288.986 188.380 L 292.721 188.380 293.455 187.613 C 293.977 187.068,294.190 186.559,294.190 185.852 C 294.190 185.305,294.313 184.782,294.463 184.689 C 294.614 184.596,294.737 183.666,294.737 182.622 C 294.737 181.539,294.619 180.725,294.463 180.725 C 294.313 180.725,294.190 180.501,294.190 180.227 C 294.190 179.953,293.841 179.338,293.414 178.860 L 292.637 177.990 288.766 177.990 C 286.367 177.990,284.894 178.094,284.894 178.264 M353.137 181.251 C 351.259 181.893,350.239 183.166,350.239 184.868 C 350.239 185.579,350.116 186.237,349.966 186.329 C 349.808 186.427,349.692 187.882,349.692 189.763 L 349.692 193.028 347.429 193.028 C 344.332 193.028,344.224 193.167,344.224 197.152 C 344.224 200.949,344.231 200.957,347.349 200.957 L 349.692 200.957 349.692 213.534 C 349.692 221.736,349.788 226.111,349.966 226.111 C 350.116 226.111,350.239 226.788,350.239 227.615 C 350.239 232.419,353.379 234.189,361.827 234.146 L 367.838 234.115 368.470 233.325 C 369.447 232.104,369.409 228.065,368.407 226.752 L 367.710 225.837 364.443 225.837 C 359.623 225.837,360.082 227.205,360.082 212.850 L 360.082 200.957 364.180 200.957 C 369.512 200.957,369.381 201.053,369.369 197.137 C 369.356 192.953,369.450 193.028,364.208 193.028 L 360.082 193.028 360.082 187.540 C 360.082 183.506,359.992 181.966,359.740 181.727 C 358.610 180.651,355.539 180.430,353.137 181.251 M39.374 192.490 C 38.699 192.632,37.812 192.996,37.403 193.298 C 36.994 193.601,36.519 193.848,36.349 193.848 C 35.396 193.848,30.075 198.449,30.075 199.272 C 30.075 199.447,29.958 199.590,29.815 199.590 C 29.671 199.590,29.353 200.051,29.108 200.615 C 28.863 201.179,28.558 201.841,28.430 202.085 C 28.303 202.330,28.115 202.977,28.012 203.524 C 27.910 204.070,27.717 204.585,27.583 204.667 C 27.450 204.750,27.341 205.154,27.341 205.566 C 27.341 205.979,27.187 206.470,26.999 206.658 C 26.745 206.912,26.658 208.671,26.658 213.534 C 26.658 218.397,26.745 220.156,26.999 220.410 C 27.187 220.598,27.341 221.212,27.341 221.775 C 27.341 222.337,27.455 222.868,27.593 222.954 C 27.732 223.039,27.932 223.500,28.036 223.976 C 28.257 224.983,29.138 226.668,29.655 227.074 C 29.851 227.229,30.057 227.598,30.113 227.895 C 30.169 228.192,30.484 228.553,30.812 228.697 C 31.140 228.842,31.469 229.189,31.542 229.470 C 31.615 229.750,31.930 230.046,32.242 230.127 C 32.554 230.209,32.809 230.426,32.809 230.609 C 32.809 230.982,34.305 232.399,34.698 232.399 C 34.837 232.399,34.992 232.491,35.042 232.604 C 35.252 233.077,38.227 234.313,39.154 234.313 C 39.707 234.313,40.235 234.436,40.328 234.586 C 40.537 234.925,48.846 234.960,49.054 234.623 C 49.135 234.493,49.611 234.320,50.113 234.239 C 51.176 234.066,53.496 233.020,54.166 232.411 C 54.421 232.179,54.949 231.768,55.340 231.498 C 55.730 231.228,56.049 230.842,56.049 230.641 C 56.049 230.440,56.304 230.209,56.616 230.127 C 56.928 230.046,57.250 229.724,57.332 229.412 C 57.413 229.100,57.650 228.845,57.858 228.845 C 58.066 228.845,58.237 228.709,58.237 228.543 C 58.237 228.376,58.546 227.853,58.924 227.381 C 59.971 226.072,60.007 226.013,60.107 225.437 C 60.159 225.142,60.374 224.653,60.586 224.351 C 60.797 224.049,60.971 223.458,60.971 223.039 C 60.971 222.619,61.094 222.031,61.244 221.732 C 61.394 221.434,61.644 220.939,61.799 220.633 C 62.159 219.923,62.134 206.972,61.773 206.972 C 61.632 206.972,61.517 206.541,61.517 206.015 C 61.517 205.489,61.410 205.058,61.279 205.058 C 61.148 205.058,60.964 204.582,60.871 204.001 C 60.721 203.061,60.285 202.127,58.619 199.180 C 58.015 198.112,55.192 195.220,54.751 195.217 C 54.563 195.216,54.409 195.110,54.409 194.981 C 54.409 194.710,52.051 193.444,50.444 192.850 C 49.116 192.360,41.212 192.102,39.374 192.490 M229.255 192.336 C 229.105 192.383,228.274 192.631,227.409 192.887 C 226.545 193.143,225.837 193.464,225.837 193.600 C 225.837 193.737,225.587 193.848,225.282 193.848 C 224.976 193.848,224.656 194.033,224.569 194.258 C 224.483 194.484,224.262 194.668,224.079 194.668 C 223.895 194.668,223.456 194.976,223.103 195.352 C 222.395 196.106,222.010 196.222,222.010 195.682 C 222.010 195.026,219.724 193.096,218.729 192.912 C 215.848 192.380,214.683 192.404,213.825 193.015 L 212.987 193.612 212.987 221.774 C 212.987 245.817,213.044 249.994,213.378 250.327 C 213.673 250.623,214.576 250.718,217.096 250.718 L 220.423 250.718 221.216 249.869 C 221.653 249.402,222.010 248.848,222.010 248.638 C 222.010 248.429,222.133 248.257,222.283 248.257 C 222.459 248.257,222.556 245.523,222.556 240.602 C 222.556 233.128,222.569 232.946,223.103 232.946 C 223.404 232.946,223.650 233.069,223.650 233.219 C 223.650 233.370,223.933 233.493,224.279 233.493 C 224.625 233.493,225.061 233.647,225.249 233.835 C 225.639 234.225,234.263 234.513,235.068 234.163 C 235.329 234.049,235.666 233.937,235.817 233.914 C 236.203 233.854,237.158 233.426,237.321 233.239 C 237.396 233.153,237.949 232.837,238.551 232.536 C 239.766 231.928,242.789 228.975,242.789 228.395 C 242.789 228.191,242.909 228.025,243.057 228.025 C 243.205 228.025,243.402 227.717,243.497 227.341 C 243.591 226.965,243.778 226.658,243.912 226.658 C 244.046 226.658,244.156 226.473,244.156 226.247 C 244.156 226.022,244.269 225.837,244.408 225.837 C 244.546 225.837,244.741 225.437,244.842 224.949 C 244.942 224.460,245.279 223.519,245.591 222.857 C 247.227 219.388,247.953 207.388,246.579 206.538 C 246.449 206.458,246.341 206.000,246.339 205.520 C 246.334 204.514,245.762 202.727,245.295 202.261 C 245.120 202.085,244.976 201.708,244.976 201.422 C 244.976 200.888,244.191 199.014,243.865 198.770 C 243.765 198.694,243.596 198.356,243.491 198.018 C 243.385 197.679,243.184 197.403,243.044 197.403 C 242.904 197.403,242.789 197.238,242.789 197.036 C 242.789 196.258,240.649 194.631,237.702 193.171 C 235.875 192.265,231.017 191.785,229.255 192.336 M113.639 193.048 L 112.919 193.615 112.919 213.375 C 112.919 236.936,112.249 234.176,117.963 234.176 C 123.361 234.176,122.761 235.989,122.761 219.671 C 122.761 206.276,122.775 205.911,123.294 205.746 C 123.587 205.653,123.899 205.350,123.987 205.074 C 124.075 204.797,124.358 204.499,124.616 204.412 C 125.156 204.230,125.988 203.708,126.529 203.213 C 126.734 203.025,127.077 202.871,127.292 202.871 C 127.507 202.871,127.683 202.748,127.683 202.597 C 127.683 202.447,127.936 202.324,128.246 202.324 C 128.555 202.324,128.733 202.201,128.640 202.051 C 128.170 201.291,132.062 201.763,132.819 202.557 C 134.456 204.278,134.370 203.447,134.518 218.905 C 134.684 236.206,134.082 234.389,139.608 234.264 C 145.239 234.137,144.634 235.903,144.634 219.575 L 144.634 206.015 146.201 204.580 C 147.062 203.790,147.909 203.144,148.081 203.144 C 148.254 203.144,148.548 202.960,148.735 202.734 C 148.923 202.509,149.368 202.324,149.726 202.324 C 150.083 202.324,150.376 202.201,150.376 202.051 C 150.376 201.899,151.106 201.777,152.019 201.777 C 153.752 201.777,155.297 202.718,155.297 203.773 C 155.297 204.011,155.420 204.282,155.571 204.375 C 155.721 204.468,155.844 205.434,155.844 206.523 C 155.844 207.612,155.963 208.622,156.109 208.768 C 156.269 208.928,156.404 213.667,156.451 220.747 L 156.528 232.462 157.621 233.412 L 158.715 234.362 161.773 234.268 C 166.224 234.131,166.393 233.974,166.303 230.053 C 166.266 228.427,166.112 226.973,165.961 226.822 C 165.786 226.647,165.687 222.029,165.687 214.026 C 165.687 207.139,165.581 201.504,165.452 201.504 C 165.322 201.504,165.146 200.907,165.059 200.179 C 164.973 199.450,164.649 198.435,164.340 197.923 C 164.031 197.411,163.700 196.833,163.604 196.637 C 163.045 195.493,159.654 193.028,158.639 193.028 C 158.323 193.028,157.988 192.905,157.895 192.755 C 157.798 192.598,156.394 192.481,154.614 192.481 C 152.834 192.481,151.430 192.598,151.333 192.755 C 151.240 192.905,150.934 193.028,150.653 193.028 C 150.372 193.028,149.957 193.213,149.731 193.438 C 149.506 193.664,148.950 193.848,148.495 193.848 C 148.041 193.848,147.571 194.009,147.450 194.206 C 147.330 194.402,146.654 194.830,145.948 195.157 C 145.243 195.483,144.277 196.130,143.802 196.594 C 142.954 197.423,141.900 197.235,141.900 196.254 C 141.900 195.480,139.280 193.580,137.335 192.944 C 135.818 192.448,130.574 192.280,130.302 192.719 C 130.222 192.849,129.661 193.035,129.056 193.132 C 128.451 193.229,127.956 193.429,127.956 193.578 C 127.956 193.727,127.834 193.848,127.685 193.848 C 127.218 193.848,125.222 194.787,125.222 195.006 C 125.222 195.121,125.058 195.215,124.858 195.215 C 124.657 195.215,124.134 195.581,123.696 196.028 C 122.819 196.922,122.488 197.048,122.488 196.488 C 122.488 193.585,116.109 191.105,113.639 193.048 M173.411 193.196 C 171.419 194.159,171.155 197.368,172.794 200.694 C 172.908 200.925,173.089 201.632,173.196 202.265 C 173.303 202.897,173.502 203.484,173.640 203.569 C 173.777 203.654,173.889 204.085,173.889 204.527 C 173.889 204.970,173.998 205.332,174.132 205.332 C 174.265 205.332,174.459 205.901,174.564 206.597 C 174.668 207.294,174.882 208.186,175.039 208.580 C 175.196 208.974,175.422 209.542,175.542 209.843 C 176.076 211.185,176.623 213.137,176.623 213.700 C 176.623 214.038,176.808 214.500,177.033 214.725 C 177.259 214.951,177.444 215.390,177.444 215.702 C 177.444 216.013,177.553 216.268,177.686 216.268 C 177.819 216.268,178.011 216.819,178.112 217.492 C 178.213 218.165,178.411 218.788,178.553 218.875 C 178.695 218.963,178.811 219.519,178.811 220.112 C 178.811 220.704,178.920 221.189,179.053 221.189 C 179.186 221.189,179.378 221.740,179.479 222.413 C 179.580 223.086,179.778 223.709,179.920 223.797 C 180.062 223.884,180.178 224.379,180.178 224.897 C 180.178 225.414,180.287 225.837,180.420 225.837 C 180.553 225.837,180.745 226.388,180.846 227.061 C 180.947 227.734,181.145 228.357,181.287 228.444 C 181.429 228.532,181.545 228.966,181.545 229.408 C 181.545 229.850,181.652 230.212,181.784 230.212 C 181.916 230.212,182.102 230.607,182.199 231.091 C 182.403 232.112,183.619 233.493,184.314 233.493 C 184.578 233.493,184.863 233.605,184.948 233.742 C 185.033 233.880,185.593 234.075,186.194 234.177 C 187.417 234.383,187.469 234.477,186.852 235.359 C 186.613 235.700,186.486 236.158,186.570 236.376 C 186.654 236.595,186.603 236.774,186.458 236.774 C 186.312 236.774,186.193 236.909,186.193 237.073 C 186.193 237.238,185.963 237.699,185.682 238.099 C 185.401 238.498,185.077 239.128,184.961 239.498 C 184.752 240.171,183.096 241.969,182.685 241.969 C 182.566 241.969,182.172 242.244,181.810 242.581 C 181.101 243.243,175.786 243.420,175.575 242.789 C 175.217 241.715,171.155 242.903,171.155 244.082 C 171.155 244.248,171.026 244.427,170.869 244.479 C 170.378 244.643,170.390 249.647,170.882 249.898 C 172.685 250.819,172.967 250.854,178.428 250.854 C 182.504 250.854,184.069 250.764,184.320 250.513 C 184.508 250.325,184.945 250.171,185.290 250.171 C 185.636 250.171,185.919 250.062,185.919 249.928 C 185.919 249.794,186.350 249.604,186.876 249.505 C 187.403 249.407,187.833 249.208,187.833 249.065 C 187.833 248.921,187.965 248.804,188.126 248.804 C 188.567 248.804,191.843 245.423,192.057 244.746 C 192.160 244.421,192.359 244.156,192.500 244.156 C 192.640 244.156,192.755 243.971,192.755 243.746 C 192.755 243.520,192.875 243.336,193.023 243.336 C 193.170 243.336,193.368 243.028,193.463 242.652 C 193.557 242.276,193.714 241.969,193.811 241.969 C 194.070 241.969,194.607 240.621,194.819 239.440 C 194.920 238.876,195.092 238.414,195.201 238.414 C 195.311 238.414,195.622 237.707,195.893 236.842 C 196.164 235.977,196.479 235.024,196.593 234.723 C 197.197 233.132,197.395 232.418,197.558 231.237 C 197.657 230.523,197.847 229.938,197.980 229.938 C 198.114 229.938,198.223 229.515,198.223 228.998 C 198.223 228.480,198.329 227.991,198.458 227.912 C 198.587 227.832,198.772 227.191,198.869 226.488 C 198.965 225.784,199.151 225.074,199.282 224.908 C 199.414 224.742,199.589 224.238,199.673 223.787 C 199.910 222.499,200.451 220.552,200.716 220.031 C 200.848 219.770,200.957 219.274,200.957 218.930 C 200.957 218.585,201.122 218.061,201.323 217.764 C 201.525 217.468,201.830 216.511,202.000 215.639 C 202.171 214.767,202.486 213.660,202.700 213.179 C 202.913 212.697,203.301 211.381,203.562 210.253 C 203.823 209.125,204.328 207.432,204.684 206.491 C 205.040 205.549,205.332 204.411,205.332 203.962 C 205.332 203.512,205.441 203.144,205.575 203.144 C 205.709 203.144,205.875 202.744,205.944 202.256 C 206.085 201.266,206.662 198.928,206.974 198.086 C 207.086 197.785,207.316 197.195,207.485 196.775 C 208.649 193.879,207.807 193.184,203.010 193.076 L 199.071 192.988 198.245 193.897 C 197.765 194.425,197.415 195.113,197.411 195.541 C 197.406 195.946,197.294 196.344,197.161 196.426 C 197.028 196.508,196.835 197.252,196.732 198.078 C 196.629 198.905,196.430 199.652,196.290 199.738 C 196.150 199.825,196.036 200.257,196.036 200.700 C 196.036 201.142,195.930 201.504,195.800 201.504 C 195.671 201.504,195.494 202.198,195.406 203.046 C 195.318 203.895,195.117 204.719,194.958 204.878 C 194.799 205.037,194.668 205.573,194.668 206.070 C 194.668 206.566,194.555 206.972,194.417 206.972 C 194.278 206.972,194.080 207.772,193.975 208.749 C 193.870 209.727,193.676 210.526,193.543 210.526 C 193.410 210.526,193.301 210.932,193.301 211.429 C 193.301 211.925,193.171 212.461,193.012 212.620 C 192.853 212.779,192.651 213.603,192.564 214.452 C 192.476 215.300,192.299 215.995,192.170 215.995 C 192.040 215.995,191.934 216.356,191.934 216.799 C 191.934 217.241,191.821 217.673,191.682 217.758 C 191.544 217.844,191.345 218.713,191.240 219.688 C 191.136 220.664,190.942 221.463,190.809 221.463 C 190.676 221.463,190.567 221.825,190.567 222.267 C 190.567 222.709,190.471 223.130,190.354 223.203 C 190.236 223.276,190.109 223.738,190.072 224.230 C 189.972 225.543,189.747 225.563,189.747 224.259 C 189.747 223.641,189.624 223.059,189.474 222.967 C 189.323 222.874,189.200 222.374,189.200 221.857 C 189.200 221.339,189.093 220.916,188.962 220.916 C 188.831 220.916,188.641 220.181,188.539 219.284 C 188.438 218.386,188.237 217.579,188.094 217.490 C 187.951 217.402,187.833 216.906,187.833 216.389 C 187.833 215.871,187.734 215.448,187.612 215.448 C 187.490 215.448,187.241 214.679,187.058 213.739 C 186.487 210.811,186.410 210.526,186.187 210.526 C 186.068 210.526,185.886 209.911,185.783 209.159 C 185.679 208.407,185.483 207.792,185.347 207.792 C 185.211 207.792,185.099 207.430,185.099 206.988 C 185.099 206.546,184.985 206.113,184.845 206.027 C 184.705 205.940,184.506 205.193,184.403 204.367 C 184.299 203.540,184.106 202.796,183.974 202.714 C 183.841 202.632,183.732 202.265,183.732 201.898 C 183.732 201.531,183.618 201.230,183.478 201.230 C 183.339 201.230,183.140 200.552,183.036 199.723 C 182.933 198.894,182.739 198.148,182.606 198.066 C 182.474 197.984,182.365 197.624,182.365 197.266 C 182.365 196.908,182.242 196.539,182.092 196.446 C 181.941 196.353,181.818 196.047,181.818 195.767 C 181.818 193.177,176.690 191.609,173.411 193.196 M254.545 194.122 C 252.601 196.066,252.281 197.708,253.551 199.227 C 253.906 199.652,254.292 200.308,254.408 200.684 C 254.524 201.059,254.787 201.610,254.992 201.906 C 255.198 202.203,255.366 203.088,255.366 203.872 C 255.366 204.657,255.489 205.375,255.639 205.468 C 255.815 205.577,255.916 210.561,255.921 219.497 L 255.930 233.356 256.634 233.870 C 257.626 234.593,264.069 234.414,264.925 233.639 C 265.448 233.165,265.469 232.710,265.543 220.246 C 265.612 208.382,265.657 207.304,266.097 206.864 C 266.360 206.601,266.576 206.291,266.576 206.175 C 266.576 205.830,269.251 203.144,269.595 203.144 C 269.768 203.144,270.298 202.963,270.772 202.741 C 271.303 202.492,272.673 202.308,274.339 202.262 C 276.717 202.196,277.080 202.121,277.346 201.640 C 277.513 201.340,277.761 201.013,277.897 200.914 C 278.034 200.815,278.203 200.048,278.273 199.211 C 278.342 198.373,278.568 197.547,278.776 197.375 C 279.328 196.917,279.299 193.848,278.742 193.848 C 278.517 193.848,278.332 193.694,278.332 193.505 C 278.332 192.517,272.854 192.116,270.386 192.923 C 269.644 193.166,269.036 193.460,269.036 193.577 C 269.036 193.693,268.711 193.871,268.313 193.971 C 267.915 194.070,266.729 195.009,265.677 196.057 C 264.625 197.105,263.741 197.929,263.714 197.888 C 263.687 197.846,263.466 197.381,263.224 196.852 C 262.544 195.370,260.581 193.835,258.294 192.999 C 256.351 192.289,256.390 192.277,254.545 194.122 M306.425 192.935 L 305.673 193.331 305.682 213.344 L 305.690 233.356 306.395 233.870 C 307.520 234.690,313.720 234.409,314.777 233.490 L 315.516 232.847 315.516 219.382 C 315.516 205.334,315.538 205.058,316.641 205.058 C 316.787 205.058,317.239 204.751,317.644 204.375 C 318.050 203.999,318.526 203.691,318.703 203.691 C 318.880 203.691,319.066 203.599,319.116 203.486 C 319.241 203.205,321.183 202.324,321.677 202.324 C 321.898 202.324,322.078 202.201,322.078 202.051 C 322.078 201.318,326.019 201.751,326.791 202.568 C 328.072 203.925,328.093 204.163,328.093 217.106 C 328.093 225.114,328.188 229.392,328.366 229.392 C 328.517 229.392,328.640 229.753,328.640 230.194 C 328.640 231.414,329.125 232.443,330.162 233.424 L 331.102 234.313 334.048 234.313 C 337.063 234.313,337.327 234.238,338.824 232.960 C 339.417 232.454,339.451 230.783,338.901 229.255 C 338.581 228.367,338.504 225.888,338.495 216.079 C 338.487 208.332,338.384 203.936,338.209 203.828 C 338.059 203.735,337.936 202.935,337.936 202.051 C 337.936 201.166,337.823 200.373,337.686 200.288 C 337.549 200.203,337.358 199.671,337.263 199.106 C 336.916 197.055,332.748 193.028,330.972 193.028 C 330.609 193.028,330.236 192.905,330.144 192.755 C 330.046 192.597,328.597 192.481,326.726 192.481 C 324.855 192.481,323.406 192.597,323.308 192.755 C 323.215 192.905,322.786 193.028,322.355 193.028 C 321.923 193.028,321.386 193.213,321.160 193.438 C 320.934 193.664,320.449 193.848,320.080 193.848 C 319.712 193.848,319.258 194.033,319.070 194.258 C 318.883 194.484,318.438 194.668,318.080 194.668 C 317.722 194.668,317.430 194.786,317.430 194.929 C 317.430 195.072,316.999 195.394,316.473 195.644 C 315.947 195.894,315.516 196.207,315.516 196.340 C 315.516 196.473,315.393 196.582,315.243 196.582 C 315.092 196.582,314.969 196.353,314.969 196.072 C 314.969 195.381,312.304 193.028,311.521 193.028 C 311.180 193.028,310.824 192.905,310.731 192.755 C 310.479 192.346,307.289 192.480,306.425 192.935 M281.132 193.571 C 280.674 194.304,280.665 200.173,281.121 200.629 C 281.301 200.809,281.864 200.957,282.371 200.957 C 282.878 200.957,283.496 201.160,283.744 201.408 C 284.892 202.556,284.894 202.591,284.894 218.217 L 284.894 233.227 285.783 233.769 C 287.873 235.044,294.780 234.383,295.153 232.873 C 295.688 230.707,295.012 196.582,294.435 196.582 C 294.300 196.582,294.190 196.436,294.190 196.257 C 294.190 195.854,292.007 193.848,291.569 193.848 C 291.393 193.848,291.096 193.664,290.909 193.438 C 290.317 192.725,281.586 192.844,281.132 193.571 M46.690 200.631 C 46.750 200.810,46.947 200.957,47.129 200.957 C 47.625 200.957,49.634 203.156,50.064 204.170 C 50.271 204.658,50.524 205.058,50.626 205.058 C 50.945 205.058,51.469 207.572,51.595 209.706 C 51.661 210.834,51.830 211.874,51.969 212.016 C 52.309 212.366,52.292 215.098,51.948 215.311 C 51.798 215.404,51.675 216.327,51.675 217.362 C 51.675 218.396,51.552 219.319,51.401 219.412 C 51.251 219.505,51.127 219.851,51.126 220.180 C 51.125 220.510,50.941 221.132,50.716 221.562 C 50.491 221.993,50.308 222.503,50.308 222.695 C 50.308 223.093,47.865 225.837,47.511 225.837 C 47.383 225.837,46.927 226.097,46.498 226.414 C 45.705 227.000,44.898 227.019,42.451 226.508 C 40.590 226.119,37.525 222.236,37.672 220.453 C 37.700 220.121,37.601 219.775,37.453 219.683 C 37.305 219.591,37.184 219.101,37.184 218.592 C 37.184 218.083,37.061 217.591,36.910 217.498 C 36.573 217.290,36.538 210.253,36.874 210.253 C 37.005 210.253,37.128 209.553,37.148 208.697 C 37.168 207.841,37.288 207.072,37.415 206.988 C 37.542 206.904,37.722 206.353,37.815 205.764 C 37.909 205.174,38.081 204.621,38.199 204.533 C 38.439 204.356,39.002 203.498,39.289 202.871 C 39.561 202.279,39.932 201.951,41.012 201.352 C 41.538 201.059,42.030 200.746,42.105 200.656 C 42.600 200.063,46.494 200.042,46.690 200.631 M232.126 201.230 C 232.126 201.381,232.296 201.504,232.504 201.504 C 232.712 201.504,233.388 202.010,234.007 202.630 C 234.627 203.249,235.133 203.925,235.133 204.133 C 235.133 204.341,235.256 204.511,235.407 204.511 C 235.557 204.511,235.680 204.757,235.680 205.058 C 235.680 205.359,235.794 205.605,235.934 205.605 C 236.073 205.605,236.264 206.312,236.357 207.177 C 236.451 208.042,236.644 208.963,236.787 209.224 C 237.111 209.815,237.133 216.182,236.812 216.381 C 236.683 216.461,236.491 217.475,236.386 218.634 C 236.249 220.150,236.057 220.863,235.703 221.171 C 235.433 221.407,235.117 221.907,235.002 222.283 C 234.887 222.659,234.147 223.612,233.358 224.402 L 231.924 225.837 229.496 225.826 C 227.338 225.817,226.901 225.726,225.564 225.006 C 224.737 224.561,223.906 224.197,223.718 224.197 C 223.530 224.197,223.377 224.074,223.377 223.923 C 223.377 223.773,223.192 223.650,222.967 223.650 C 222.283 223.650,222.358 205.800,223.044 205.126 C 224.808 203.397,226.998 201.750,227.727 201.604 C 228.197 201.510,228.649 201.326,228.730 201.195 C 228.936 200.862,232.126 200.895,232.126 201.230 " stroke="none" fill="#ffffff" fill-rule="evenodd"></path><path id="path3" d="" stroke="none" fill="#ff0000" fill-rule="evenodd"></path><path id="path4" d="" stroke="none" fill="#00ff00" fill-rule="evenodd"></path></g></svg>