<svg id="svg" version="1.1" width="400" height="142.56526674233825" xmlns="http://www.w3.org/2000/svg" xmlns:xlink="http://www.w3.org/1999/xlink" style="display: block;"><g id="svgg"><path id="path0" d="M127.205 72.833 C 127.205 73.154,127.240 73.285,127.282 73.125 C 127.323 72.965,127.323 72.702,127.282 72.542 C 127.240 72.381,127.205 72.512,127.205 72.833 " stroke="none" fill="#000000" fill-rule="evenodd"></path><path id="path1" d="M356.167 54.230 C 356.167 54.368,356.242 54.527,356.333 54.583 C 356.425 54.640,356.500 54.574,356.500 54.436 C 356.500 54.299,356.425 54.140,356.333 54.083 C 356.242 54.027,356.167 54.093,356.167 54.230 M216.145 61.927 C 216.330 62.162,216.441 62.460,216.391 62.590 C 216.283 62.872,216.705 63.333,217.071 63.333 C 217.485 63.333,217.376 62.746,216.917 62.500 C 216.688 62.378,216.532 62.246,216.570 62.208 C 216.664 62.113,216.128 61.500,215.951 61.500 C 215.873 61.500,215.960 61.692,216.145 61.927 M327.240 62.016 C 327.189 62.099,327.232 62.167,327.335 62.167 C 327.438 62.167,327.361 62.394,327.162 62.673 C 326.793 63.191,326.817 63.667,327.211 63.667 C 327.547 63.667,327.833 63.311,327.833 62.893 C 327.833 62.688,327.910 62.473,328.003 62.415 C 328.096 62.357,328.135 62.250,328.089 62.175 C 327.958 61.964,327.344 61.848,327.240 62.016 M163.667 64.893 C 163.667 65.212,163.760 65.510,163.875 65.556 C 163.995 65.605,163.955 65.646,163.780 65.654 C 163.209 65.678,163.507 66.389,164.142 66.518 C 164.698 66.631,164.701 66.629,164.584 66.107 C 164.520 65.819,164.462 65.493,164.456 65.382 C 164.450 65.272,164.344 65.143,164.222 65.096 C 164.100 65.049,164.000 64.900,164.000 64.765 C 164.000 64.630,163.925 64.473,163.833 64.417 C 163.734 64.356,163.667 64.549,163.667 64.893 M254.122 78.601 C 254.055 78.668,254.000 78.837,254.000 78.978 C 254.000 79.165,254.049 79.184,254.185 79.048 C 254.287 78.946,254.342 78.776,254.307 78.671 C 254.272 78.565,254.188 78.534,254.122 78.601 " stroke="none" fill="#555555" fill-rule="evenodd"></path><path id="path2" d="M74.863 23.473 C 74.572 23.733,74.333 24.033,74.333 24.140 C 74.333 24.246,74.221 24.333,74.083 24.333 C 73.946 24.333,73.833 24.446,73.833 24.583 C 73.833 24.721,73.753 24.833,73.654 24.833 C 73.421 24.833,72.500 25.754,72.500 25.987 C 72.500 26.086,72.387 26.167,72.250 26.167 C 72.112 26.167,72.000 26.292,72.000 26.444 C 72.000 26.597,71.956 26.678,71.903 26.625 C 71.784 26.506,71.167 27.101,71.167 27.333 C 71.167 27.425,71.054 27.500,70.917 27.500 C 70.779 27.500,70.667 27.613,70.667 27.750 C 70.667 27.887,70.554 28.000,70.417 28.000 C 70.279 28.000,70.167 28.080,70.167 28.179 C 70.167 28.409,69.743 28.833,69.512 28.833 C 69.414 28.833,69.333 28.900,69.333 28.981 C 69.333 29.180,64.688 33.833,64.490 33.833 C 64.404 33.833,64.333 33.946,64.333 34.083 C 64.333 34.221,64.221 34.333,64.083 34.333 C 63.946 34.333,63.833 34.446,63.833 34.583 C 63.833 34.721,63.772 34.833,63.697 34.833 C 63.475 34.833,62.500 35.762,62.500 35.973 C 62.500 36.080,62.419 36.167,62.321 36.167 C 62.087 36.167,61.167 37.087,61.167 37.321 C 61.167 37.419,61.054 37.500,60.917 37.500 C 60.779 37.500,60.667 37.612,60.667 37.750 C 60.667 37.887,60.586 38.000,60.487 38.000 C 60.254 38.000,59.333 38.921,59.333 39.154 C 59.333 39.253,59.240 39.337,59.125 39.340 C 59.010 39.344,58.729 39.580,58.500 39.864 C 57.778 40.759,53.347 45.167,53.170 45.167 C 53.076 45.167,53.000 45.279,53.000 45.417 C 53.000 45.554,52.887 45.667,52.750 45.667 C 52.612 45.667,52.500 45.779,52.500 45.917 C 52.500 46.054,52.419 46.167,52.321 46.167 C 52.222 46.167,51.922 46.386,51.654 46.654 C 51.386 46.922,51.167 47.222,51.167 47.321 C 51.167 47.419,51.086 47.500,50.987 47.500 C 50.888 47.500,50.475 47.832,50.070 48.237 C 49.665 48.642,49.333 49.055,49.333 49.154 C 49.333 49.252,49.253 49.333,49.154 49.333 C 49.055 49.333,48.755 49.553,48.487 49.821 C 48.219 50.088,48.000 50.388,48.000 50.487 C 48.000 50.586,47.906 50.670,47.792 50.674 C 47.677 50.678,47.396 50.913,47.167 51.197 C 46.626 51.868,42.368 56.126,41.697 56.667 C 41.413 56.896,41.178 57.177,41.174 57.292 C 41.170 57.406,41.086 57.500,40.987 57.500 C 40.754 57.500,39.833 58.421,39.833 58.654 C 39.833 58.753,39.721 58.833,39.583 58.833 C 39.446 58.833,39.333 58.946,39.333 59.083 C 39.333 59.221,39.256 59.333,39.161 59.333 C 38.945 59.333,38.000 60.288,38.000 60.506 C 38.000 60.594,37.887 60.667,37.750 60.667 C 37.612 60.667,37.500 60.766,37.500 60.889 C 37.500 61.011,37.312 61.211,37.083 61.333 C 36.854 61.456,36.667 61.656,36.667 61.778 C 36.667 61.900,36.554 62.000,36.417 62.000 C 36.279 62.000,36.167 62.073,36.167 62.162 C 36.167 62.348,31.177 67.377,30.374 68.000 C 30.078 68.229,29.836 68.510,29.835 68.625 C 29.834 68.740,29.760 68.833,29.671 68.833 C 29.460 68.833,28.000 70.293,28.000 70.504 C 28.000 70.594,27.919 70.667,27.821 70.667 C 27.722 70.667,27.422 70.886,27.154 71.154 C 26.143 72.164,26.655 75.500,27.821 75.500 C 27.919 75.500,28.000 75.581,28.000 75.680 C 28.000 75.914,29.419 77.333,29.654 77.333 C 29.752 77.333,29.833 77.414,29.833 77.513 C 29.833 77.746,30.754 78.667,30.987 78.667 C 31.086 78.667,31.167 78.779,31.167 78.917 C 31.167 79.054,31.279 79.167,31.417 79.167 C 31.554 79.167,31.667 79.247,31.667 79.345 C 31.667 79.576,32.091 80.000,32.321 80.000 C 32.420 80.000,32.500 80.112,32.500 80.250 C 32.500 80.387,32.612 80.500,32.750 80.500 C 32.887 80.500,33.000 80.581,33.000 80.679 C 33.000 80.913,33.921 81.833,34.154 81.833 C 34.253 81.833,34.333 81.946,34.333 82.083 C 34.333 82.221,34.446 82.333,34.583 82.333 C 34.721 82.333,34.833 82.407,34.833 82.498 C 34.833 82.754,35.377 83.326,35.530 83.232 C 35.605 83.185,35.667 83.264,35.667 83.407 C 35.667 83.550,35.779 83.667,35.917 83.667 C 36.054 83.667,36.167 83.748,36.167 83.848 C 36.167 84.070,37.616 85.500,37.840 85.500 C 37.928 85.500,38.000 85.581,38.000 85.679 C 38.000 85.913,38.921 86.833,39.154 86.833 C 39.253 86.833,39.333 86.946,39.333 87.083 C 39.333 87.221,39.446 87.333,39.583 87.333 C 39.721 87.333,39.833 87.414,39.833 87.513 C 39.833 87.746,40.754 88.667,40.987 88.667 C 41.086 88.667,41.167 88.748,41.167 88.848 C 41.167 89.070,42.616 90.500,42.840 90.500 C 42.928 90.500,43.000 90.581,43.000 90.679 C 43.000 90.913,43.921 91.833,44.154 91.833 C 44.253 91.833,44.333 91.946,44.333 92.083 C 44.333 92.221,44.446 92.333,44.583 92.333 C 44.721 92.333,44.833 92.414,44.833 92.513 C 44.833 92.746,45.754 93.667,45.987 93.667 C 46.086 93.667,46.167 93.747,46.167 93.846 C 46.167 94.079,47.087 95.000,47.321 95.000 C 47.419 95.000,47.500 95.112,47.500 95.250 C 47.500 95.388,47.612 95.500,47.750 95.500 C 47.887 95.500,48.000 95.578,48.000 95.672 C 48.000 95.888,48.955 96.833,49.172 96.833 C 49.261 96.833,49.333 96.914,49.333 97.013 C 49.333 97.247,50.753 98.667,50.987 98.667 C 51.086 98.667,51.167 98.747,51.167 98.846 C 51.167 99.079,52.087 100.000,52.321 100.000 C 52.419 100.000,52.500 100.112,52.500 100.250 C 52.500 100.388,52.612 100.500,52.750 100.500 C 52.887 100.500,53.000 100.578,53.000 100.672 C 53.000 100.888,53.955 101.833,54.172 101.833 C 54.261 101.833,54.333 101.906,54.333 101.994 C 54.333 102.212,55.279 103.167,55.494 103.167 C 55.589 103.167,55.667 103.279,55.667 103.417 C 55.667 103.554,55.779 103.667,55.917 103.667 C 56.054 103.667,56.167 103.767,56.167 103.889 C 56.167 104.138,57.071 105.000,57.332 105.000 C 57.424 105.000,57.500 105.112,57.500 105.250 C 57.500 105.388,57.612 105.500,57.750 105.500 C 57.887 105.500,58.000 105.581,58.000 105.679 C 58.000 105.913,58.921 106.833,59.154 106.833 C 59.253 106.833,59.333 106.906,59.333 106.994 C 59.333 107.212,60.279 108.167,60.494 108.167 C 60.589 108.167,60.667 108.279,60.667 108.417 C 60.667 108.554,60.779 108.667,60.917 108.667 C 61.054 108.667,61.167 108.747,61.167 108.846 C 61.167 109.079,62.087 110.000,62.321 110.000 C 62.419 110.000,62.500 110.076,62.500 110.168 C 62.500 110.429,63.362 111.333,63.611 111.333 C 63.733 111.333,63.833 111.446,63.833 111.583 C 63.833 111.721,63.946 111.833,64.083 111.833 C 64.221 111.833,64.333 111.933,64.333 112.056 C 64.333 112.305,65.237 113.167,65.499 113.167 C 65.591 113.167,65.667 113.262,65.667 113.378 C 65.667 113.637,68.387 116.333,68.647 116.333 C 68.750 116.333,68.833 116.446,68.833 116.583 C 68.833 116.721,68.946 116.833,69.083 116.833 C 69.221 116.833,69.333 116.946,69.333 117.083 C 69.333 117.221,69.446 117.333,69.583 117.333 C 69.721 117.333,69.815 117.427,69.792 117.542 C 69.769 117.656,69.844 117.731,69.958 117.708 C 70.073 117.685,70.167 117.779,70.167 117.917 C 70.167 118.054,70.279 118.167,70.417 118.167 C 70.554 118.167,70.667 118.279,70.667 118.417 C 70.667 118.554,70.766 118.667,70.889 118.667 C 71.011 118.667,71.211 118.854,71.333 119.083 C 71.456 119.313,71.656 119.500,71.778 119.500 C 71.900 119.500,72.000 119.612,72.000 119.750 C 72.000 119.888,72.112 120.000,72.250 120.000 C 72.387 120.000,72.500 120.081,72.500 120.179 C 72.500 120.278,72.719 120.578,72.987 120.846 L 73.474 121.333 76.750 121.333 L 80.026 121.333 80.508 120.875 C 80.773 120.623,81.343 120.117,81.774 119.750 C 82.654 119.001,89.167 112.542,89.167 112.417 C 89.167 112.373,89.467 112.055,89.833 111.710 C 90.200 111.365,90.500 110.952,90.500 110.792 C 90.500 110.631,90.612 110.500,90.750 110.500 C 90.888 110.500,91.000 110.388,91.000 110.250 C 91.000 110.112,91.081 110.000,91.179 110.000 C 91.278 110.000,91.574 109.794,91.836 109.542 C 92.099 109.290,92.780 108.671,93.351 108.167 C 94.568 107.092,99.762 101.907,100.801 100.729 C 101.195 100.282,101.701 99.715,101.926 99.469 C 102.150 99.223,102.333 98.941,102.333 98.844 C 102.333 98.746,102.414 98.667,102.513 98.667 C 102.746 98.667,103.667 97.746,103.667 97.513 C 103.667 97.414,103.781 97.333,103.920 97.333 C 104.059 97.333,104.711 96.808,105.368 96.167 C 106.025 95.525,106.594 95.000,106.631 95.000 C 106.752 95.000,112.667 88.934,112.667 88.811 C 112.667 88.746,112.892 88.467,113.167 88.192 C 113.442 87.917,113.667 87.612,113.667 87.513 C 113.667 87.414,113.779 87.333,113.917 87.333 C 114.054 87.333,114.167 87.221,114.167 87.083 C 114.167 86.946,114.246 86.833,114.344 86.833 C 114.522 86.833,114.713 86.674,116.233 85.259 C 116.681 84.842,117.070 84.500,117.095 84.500 C 117.192 84.500,122.333 79.327,122.333 79.230 C 122.333 79.174,122.633 78.866,123.000 78.544 C 123.367 78.223,123.667 77.819,123.667 77.647 C 123.667 77.474,123.748 77.333,123.846 77.333 C 124.081 77.333,125.500 75.914,125.500 75.680 C 125.500 75.581,125.578 75.500,125.673 75.500 C 125.768 75.500,126.135 75.219,126.487 74.875 C 127.498 73.889,127.262 70.667,126.179 70.667 C 126.080 70.667,126.000 70.554,126.000 70.417 C 126.000 70.279,125.888 70.167,125.750 70.167 C 125.612 70.167,125.500 70.054,125.500 69.917 C 125.500 69.779,125.383 69.667,125.240 69.667 C 125.097 69.667,125.018 69.605,125.065 69.530 C 125.160 69.377,124.588 68.833,124.331 68.833 C 124.241 68.833,124.167 68.721,124.167 68.583 C 124.167 68.446,124.054 68.333,123.917 68.333 C 123.779 68.333,123.667 68.253,123.667 68.155 C 123.667 67.924,123.243 67.500,123.012 67.500 C 122.914 67.500,122.833 67.387,122.833 67.250 C 122.833 67.112,122.721 67.000,122.583 67.000 C 122.446 67.000,122.333 66.887,122.333 66.750 C 122.333 66.612,122.221 66.500,122.083 66.500 C 121.946 66.500,121.833 66.420,121.833 66.321 C 121.833 66.091,121.409 65.667,121.179 65.667 C 121.080 65.667,121.000 65.575,121.000 65.462 C 121.000 65.218,115.081 59.333,114.836 59.333 C 114.743 59.333,114.667 59.221,114.667 59.083 C 114.667 58.946,114.554 58.833,114.417 58.833 C 114.279 58.833,114.167 58.721,114.167 58.583 C 114.167 58.446,114.054 58.333,113.917 58.333 C 113.779 58.333,113.667 58.253,113.667 58.155 C 113.667 57.967,113.259 57.500,113.095 57.500 C 112.971 57.500,112.333 56.862,112.333 56.737 C 112.333 56.566,111.364 55.667,111.179 55.667 C 111.081 55.667,111.000 55.554,111.000 55.417 C 111.000 55.279,110.888 55.167,110.750 55.167 C 110.612 55.167,110.500 55.054,110.500 54.917 C 110.500 54.779,110.383 54.667,110.240 54.667 C 110.097 54.667,110.023 54.598,110.075 54.513 C 110.179 54.345,109.990 54.125,109.198 53.500 C 108.907 53.271,108.669 53.000,108.668 52.898 C 108.667 52.796,108.367 52.504,108.000 52.250 C 107.633 51.996,107.333 51.696,107.333 51.583 C 107.333 51.471,107.033 51.171,106.667 50.917 C 106.300 50.663,106.000 50.366,106.000 50.259 C 106.000 50.151,105.756 49.886,105.458 49.669 C 105.160 49.453,104.737 49.063,104.517 48.804 C 104.298 48.545,104.017 48.333,103.892 48.333 C 103.768 48.333,103.667 48.253,103.667 48.155 C 103.667 47.924,103.243 47.500,103.012 47.500 C 102.914 47.500,102.833 47.387,102.833 47.250 C 102.833 47.112,102.721 47.000,102.583 47.000 C 102.446 47.000,102.333 46.920,102.333 46.821 C 102.333 46.591,101.909 46.167,101.679 46.167 C 101.580 46.167,101.500 46.054,101.500 45.917 C 101.500 45.779,101.388 45.667,101.250 45.667 C 101.112 45.667,101.000 45.554,101.000 45.417 C 101.000 45.279,100.888 45.167,100.750 45.167 C 100.612 45.167,100.500 45.086,100.500 44.988 C 100.500 44.757,100.076 44.333,99.845 44.333 C 99.747 44.333,99.667 44.221,99.667 44.083 C 99.667 43.946,99.554 43.833,99.417 43.833 C 99.279 43.833,99.167 43.721,99.167 43.583 C 99.167 43.446,99.050 43.333,98.907 43.333 C 98.764 43.333,98.685 43.271,98.732 43.196 C 98.808 43.073,97.111 41.167,96.925 41.167 C 96.771 41.167,96.000 40.372,96.000 40.212 C 96.000 40.120,95.702 39.839,95.339 39.587 C 94.975 39.335,94.632 38.987,94.577 38.814 C 94.522 38.641,94.417 38.500,94.344 38.500 C 94.270 38.500,93.686 37.975,93.046 37.333 C 92.406 36.692,91.796 36.167,91.691 36.167 C 91.586 36.167,91.500 36.054,91.500 35.917 C 91.500 35.779,91.388 35.667,91.250 35.667 C 91.112 35.667,91.000 35.554,91.000 35.417 C 91.000 35.279,90.888 35.167,90.750 35.167 C 90.612 35.167,90.500 35.086,90.500 34.988 C 90.500 34.757,90.076 34.333,89.845 34.333 C 89.747 34.333,89.667 34.221,89.667 34.083 C 89.667 33.946,89.554 33.833,89.417 33.833 C 89.279 33.833,89.167 33.753,89.167 33.655 C 89.167 33.424,88.743 33.000,88.512 33.000 C 88.414 33.000,88.333 32.887,88.333 32.750 C 88.333 32.612,88.221 32.500,88.083 32.500 C 87.946 32.500,87.833 32.399,87.833 32.276 C 87.833 32.014,85.761 29.833,85.512 29.833 C 85.420 29.833,85.256 29.665,85.147 29.458 C 84.841 28.877,80.644 24.833,80.347 24.833 C 80.248 24.833,80.167 24.721,80.167 24.583 C 80.167 24.446,80.054 24.333,79.917 24.333 C 79.779 24.333,79.667 24.221,79.667 24.083 C 79.667 23.946,79.554 23.833,79.417 23.833 C 79.279 23.833,79.167 23.748,79.167 23.643 C 79.167 22.825,75.741 22.690,74.863 23.473 M77.500 29.583 C 77.500 29.721,77.387 29.833,77.250 29.833 C 77.112 29.833,77.000 29.721,77.000 29.583 C 77.000 29.446,77.112 29.333,77.250 29.333 C 77.387 29.333,77.500 29.446,77.500 29.583 M171.535 48.068 C 171.470 48.168,171.269 48.332,171.089 48.431 C 170.145 48.953,170.192 47.977,170.179 67.445 C 170.165 87.046,170.122 86.181,171.125 86.439 C 171.331 86.493,171.500 86.603,171.500 86.685 C 171.500 86.991,176.629 86.862,176.998 86.546 C 177.326 86.265,177.333 86.069,177.334 77.505 L 177.334 68.750 177.797 68.208 C 178.052 67.910,178.353 67.667,178.466 67.667 C 178.579 67.667,178.801 67.597,178.961 67.512 C 179.120 67.427,179.388 67.314,179.557 67.261 C 179.727 67.208,179.904 67.015,179.952 66.832 C 180.020 66.572,180.180 66.500,180.686 66.500 C 181.150 66.500,181.333 66.429,181.333 66.250 C 181.333 66.047,181.602 66.000,182.750 66.000 C 183.898 66.000,184.167 66.047,184.167 66.250 C 184.167 66.387,184.279 66.500,184.417 66.500 C 184.554 66.500,184.667 66.646,184.667 66.823 C 184.667 67.001,184.742 67.193,184.833 67.250 C 184.941 67.316,185.000 70.335,185.000 75.760 C 185.000 83.121,185.031 84.167,185.250 84.167 C 185.431 84.167,185.500 84.352,185.500 84.833 C 185.500 85.315,185.569 85.500,185.750 85.500 C 185.887 85.500,186.000 85.581,186.000 85.679 C 186.000 86.460,186.936 86.833,188.894 86.833 C 189.994 86.833,190.858 86.762,190.917 86.667 C 190.973 86.575,191.168 86.500,191.348 86.500 C 191.529 86.500,191.720 86.388,191.773 86.250 C 191.826 86.112,191.973 86.000,192.101 86.000 C 192.229 86.000,192.333 85.888,192.333 85.750 C 192.333 85.612,192.412 85.500,192.508 85.500 C 192.612 85.500,192.668 85.164,192.646 84.675 C 192.625 84.221,192.546 83.888,192.471 83.935 C 192.395 83.981,192.333 80.490,192.333 76.177 C 192.333 69.316,192.302 68.333,192.083 68.333 C 191.879 68.333,191.833 68.049,191.833 66.770 C 191.833 65.584,191.773 65.157,191.583 65.000 C 191.446 64.886,191.333 64.557,191.333 64.270 C 191.333 63.943,191.177 63.578,190.917 63.297 C 190.688 63.050,190.500 62.740,190.500 62.608 C 190.500 62.477,190.387 62.326,190.250 62.273 C 190.112 62.220,190.000 62.090,190.000 61.983 C 190.000 61.684,188.847 60.667,188.509 60.667 C 188.343 60.667,188.114 60.554,188.000 60.417 C 187.886 60.279,187.670 60.164,187.521 60.161 C 187.372 60.158,187.114 60.053,186.949 59.928 C 186.481 59.573,182.032 59.557,181.896 59.910 C 181.825 60.095,181.559 60.167,180.936 60.167 C 180.211 60.167,179.987 60.246,179.527 60.667 C 179.226 60.942,178.908 61.167,178.821 61.167 C 178.734 61.167,178.513 61.242,178.331 61.333 C 178.149 61.425,177.850 61.576,177.667 61.668 C 177.336 61.835,177.333 61.781,177.333 55.729 L 177.333 49.622 176.467 48.769 L 175.601 47.917 173.627 47.902 C 172.369 47.892,171.611 47.952,171.535 48.068 M308.606 50.417 C 308.554 50.554,308.339 50.670,308.130 50.674 C 307.911 50.678,307.574 50.900,307.333 51.199 C 307.104 51.484,306.785 51.835,306.625 51.979 C 306.383 52.197,306.333 52.534,306.333 53.979 L 306.333 55.718 307.375 56.773 L 308.417 57.827 310.380 57.830 C 311.974 57.833,312.362 57.786,312.440 57.583 C 312.492 57.446,312.640 57.333,312.768 57.333 C 312.896 57.333,313.000 57.258,313.000 57.167 C 313.000 57.075,313.112 57.000,313.250 57.000 C 313.387 57.000,313.500 56.921,313.500 56.825 C 313.500 56.729,313.688 56.477,313.917 56.265 C 314.362 55.852,314.587 52.000,314.167 52.000 C 314.075 52.000,314.000 51.910,314.000 51.801 C 314.000 51.524,313.153 50.667,312.880 50.667 C 312.757 50.667,312.613 50.554,312.560 50.417 C 312.483 50.215,312.102 50.167,310.583 50.167 C 309.065 50.167,308.684 50.215,308.606 50.417 M60.667 52.167 C 60.667 52.258,60.779 52.333,60.917 52.333 C 61.097 52.333,61.167 52.517,61.167 52.990 C 61.167 53.351,61.242 53.693,61.333 53.750 C 61.443 53.818,61.500 60.948,61.500 74.598 C 61.500 92.885,61.530 95.355,61.750 95.440 C 61.887 95.492,62.000 95.640,62.000 95.768 C 62.000 95.896,62.065 96.000,62.145 96.000 C 62.224 96.000,62.712 96.412,63.228 96.917 L 64.167 97.833 66.250 97.833 C 67.991 97.833,68.333 97.792,68.333 97.583 C 68.333 97.446,68.446 97.333,68.583 97.333 C 68.721 97.333,68.833 97.253,68.833 97.155 C 68.833 96.933,69.254 96.500,69.469 96.500 C 69.657 96.500,70.833 95.229,70.833 95.025 C 70.833 94.948,70.983 94.711,71.167 94.500 C 71.495 94.122,71.500 93.876,71.500 79.476 C 71.500 62.771,71.367 64.167,72.954 64.167 C 73.624 64.167,73.833 64.226,73.833 64.417 C 73.833 64.554,73.946 64.667,74.083 64.667 C 74.239 64.667,74.333 64.824,74.333 65.083 C 74.333 65.313,74.408 65.500,74.500 65.500 C 74.608 65.500,74.667 67.335,74.667 70.672 C 74.667 75.115,74.702 75.857,74.917 75.940 C 75.054 75.992,75.167 76.178,75.167 76.351 C 75.167 76.525,75.244 76.667,75.339 76.667 C 75.433 76.667,75.557 76.788,75.614 76.937 C 75.854 77.562,76.651 78.186,78.064 78.853 C 78.653 79.131,81.206 79.132,81.299 78.854 C 81.333 78.751,81.428 78.667,81.510 78.667 C 81.834 78.667,84.167 76.197,84.167 75.853 C 84.167 75.650,84.273 75.500,84.417 75.500 C 84.636 75.500,84.667 74.214,84.667 64.922 L 84.667 54.345 85.161 53.839 C 85.833 53.151,86.667 53.141,87.339 53.813 L 87.818 54.293 87.867 67.591 C 87.906 78.046,87.961 80.904,88.125 80.958 C 88.240 80.997,88.333 81.267,88.333 81.560 C 88.333 81.853,88.435 82.240,88.558 82.421 C 88.682 82.602,88.830 82.938,88.888 83.167 C 88.945 83.396,89.256 83.762,89.579 83.980 C 89.902 84.198,90.167 84.442,90.167 84.521 C 90.167 84.601,90.346 84.667,90.566 84.667 C 90.785 84.667,91.008 84.779,91.060 84.917 C 91.211 85.309,94.756 85.273,95.345 84.874 C 96.649 83.990,97.833 82.531,97.839 81.800 C 97.842 81.406,97.954 80.938,98.089 80.760 C 98.299 80.481,98.333 78.482,98.333 66.385 C 98.333 54.006,98.363 52.333,98.583 52.333 C 98.721 52.333,98.833 52.446,98.833 52.583 C 98.833 52.721,98.894 52.833,98.968 52.833 C 99.042 52.833,99.567 53.270,100.135 53.803 L 101.167 54.773 101.167 58.616 C 101.167 61.829,101.208 62.493,101.417 62.667 C 101.565 62.790,101.667 63.154,101.667 63.562 C 101.667 64.237,102.644 65.500,103.165 65.500 C 103.257 65.500,103.333 65.612,103.333 65.750 C 103.333 65.887,103.446 66.000,103.583 66.000 C 103.721 66.000,103.833 66.112,103.833 66.250 C 103.833 66.399,103.986 66.500,104.210 66.500 C 104.442 66.500,104.651 66.645,104.752 66.875 C 105.022 67.490,107.744 67.525,108.395 66.923 C 108.645 66.690,108.922 66.500,109.009 66.500 C 109.096 66.500,109.167 66.387,109.167 66.250 C 109.167 66.112,109.279 66.000,109.417 66.000 C 109.554 66.000,109.667 65.887,109.667 65.750 C 109.667 65.612,109.747 65.500,109.845 65.500 C 110.076 65.500,110.500 65.076,110.500 64.845 C 110.500 64.245,114.425 67.803,116.165 69.981 C 116.393 70.266,116.674 70.500,116.790 70.500 C 116.905 70.500,117.000 70.581,117.000 70.680 C 117.000 70.914,118.419 72.333,118.654 72.333 C 118.752 72.333,118.833 72.446,118.833 72.583 C 118.833 72.721,118.908 72.833,119.000 72.833 C 119.421 72.833,119.063 73.390,117.833 74.646 C 117.100 75.396,116.500 76.119,116.500 76.254 C 116.500 76.389,116.388 76.500,116.250 76.500 C 116.112 76.500,116.000 76.612,116.000 76.750 C 116.000 76.887,115.920 77.000,115.821 77.000 C 115.591 77.000,115.167 77.424,115.167 77.655 C 115.167 77.753,115.054 77.833,114.917 77.833 C 114.779 77.833,114.667 77.946,114.667 78.083 C 114.667 78.221,114.554 78.333,114.417 78.333 C 114.279 78.333,114.167 78.446,114.167 78.583 C 114.167 78.721,114.061 78.833,113.931 78.833 C 113.608 78.833,105.667 86.754,105.667 87.076 C 105.667 87.218,105.554 87.333,105.417 87.333 C 105.279 87.333,105.167 87.446,105.167 87.583 C 105.167 87.721,105.054 87.833,104.917 87.833 C 104.779 87.833,104.667 87.946,104.667 88.083 C 104.667 88.221,104.554 88.333,104.417 88.333 C 104.279 88.333,104.167 88.414,104.167 88.512 C 104.167 88.610,104.060 88.798,103.929 88.929 C 103.798 89.060,103.610 89.167,103.512 89.167 C 103.414 89.167,103.333 89.279,103.333 89.417 C 103.333 89.554,103.221 89.667,103.083 89.667 C 102.946 89.667,102.833 89.779,102.833 89.917 C 102.833 90.054,102.752 90.167,102.653 90.167 C 102.455 90.167,101.478 91.060,98.964 93.542 C 98.058 94.435,97.246 95.167,97.159 95.167 C 97.071 95.167,97.000 95.241,97.000 95.333 C 97.000 95.424,96.381 96.132,95.625 96.907 C 93.997 98.575,93.833 98.765,93.833 98.993 C 93.833 99.089,93.721 99.167,93.583 99.167 C 93.446 99.167,93.333 99.279,93.333 99.417 C 93.333 99.554,93.221 99.667,93.083 99.667 C 92.946 99.667,92.833 99.747,92.833 99.845 C 92.833 100.076,92.409 100.500,92.179 100.500 C 92.080 100.500,92.000 100.612,92.000 100.750 C 92.000 100.888,91.888 101.000,91.750 101.000 C 91.612 101.000,91.500 101.112,91.500 101.250 C 91.500 101.388,91.422 101.500,91.326 101.500 C 91.111 101.500,91.006 101.591,89.258 103.292 C 88.481 104.048,87.767 104.667,87.672 104.667 C 87.577 104.667,87.500 104.747,87.500 104.846 C 87.500 105.079,86.579 106.000,86.346 106.000 C 86.247 106.000,86.167 106.064,86.167 106.143 C 86.167 106.222,85.529 106.951,84.750 107.765 C 83.971 108.578,83.333 109.338,83.333 109.455 C 83.333 109.571,83.253 109.667,83.155 109.667 C 82.924 109.667,82.500 110.091,82.500 110.321 C 82.500 110.420,82.387 110.500,82.250 110.500 C 82.112 110.500,82.000 110.612,82.000 110.750 C 82.000 110.888,81.887 111.000,81.750 111.000 C 81.612 111.000,81.500 111.112,81.500 111.250 C 81.500 111.388,81.420 111.500,81.321 111.500 C 81.091 111.500,80.667 111.924,80.667 112.155 C 80.667 112.253,80.554 112.333,80.417 112.333 C 80.279 112.333,80.167 112.446,80.167 112.583 C 80.167 112.721,80.054 112.833,79.917 112.833 C 79.779 112.833,79.667 112.946,79.667 113.083 C 79.667 113.221,79.573 113.336,79.458 113.339 C 79.344 113.343,78.731 113.830,78.097 114.423 C 76.699 115.728,76.915 115.729,75.577 114.417 C 74.969 113.821,74.403 113.333,74.319 113.333 C 74.235 113.333,74.167 113.252,74.167 113.152 C 74.167 112.983,72.743 111.500,72.581 111.500 C 72.477 111.500,67.888 106.852,67.083 105.932 C 66.717 105.512,66.323 105.169,66.208 105.168 C 66.094 105.167,66.000 105.086,66.000 104.987 C 66.000 104.753,64.581 103.333,64.346 103.333 C 64.248 103.333,64.167 103.266,64.167 103.184 C 64.167 103.038,61.427 100.167,61.288 100.167 C 61.145 100.167,56.500 95.464,56.500 95.319 C 56.500 95.235,56.387 95.167,56.250 95.167 C 56.112 95.167,56.000 95.086,56.000 94.988 C 56.000 94.781,53.183 92.000,52.973 92.000 C 52.896 92.000,52.833 91.919,52.833 91.820 C 52.833 91.586,51.414 90.167,51.180 90.167 C 51.081 90.167,51.000 90.086,51.000 89.987 C 51.000 89.807,50.103 88.833,49.936 88.833 C 49.793 88.833,45.167 84.112,45.167 83.966 C 45.167 83.893,45.054 83.833,44.917 83.833 C 44.779 83.833,44.667 83.761,44.667 83.673 C 44.667 83.449,43.236 82.000,43.015 82.000 C 42.915 82.000,42.833 81.930,42.833 81.845 C 42.833 81.637,40.039 78.833,39.831 78.833 C 39.741 78.833,39.667 78.757,39.667 78.664 C 39.667 78.500,39.496 78.324,37.700 76.635 C 37.243 76.205,36.911 75.811,36.962 75.760 C 37.014 75.709,36.964 75.667,36.852 75.667 C 36.636 75.667,35.667 74.682,35.667 74.463 C 35.667 74.392,35.587 74.333,35.491 74.333 C 35.394 74.333,35.094 74.092,34.824 73.796 C 34.332 73.257,34.189 72.833,34.500 72.833 C 34.592 72.833,34.667 72.721,34.667 72.583 C 34.667 72.446,34.759 72.333,34.872 72.333 C 35.144 72.333,37.833 69.650,37.833 69.379 C 37.833 69.262,37.935 69.167,38.059 69.167 C 38.182 69.167,38.618 68.810,39.027 68.375 C 39.436 67.940,39.954 67.419,40.177 67.217 C 40.879 66.584,41.500 65.862,41.500 65.677 C 41.500 65.580,41.581 65.500,41.679 65.500 C 41.913 65.500,42.833 64.579,42.833 64.346 C 42.833 64.247,42.914 64.167,43.013 64.167 C 43.247 64.167,44.667 62.747,44.667 62.513 C 44.667 62.414,44.751 62.333,44.853 62.333 C 44.956 62.333,45.706 61.665,46.520 60.849 L 48.000 59.365 48.000 64.173 C 48.000 67.198,48.062 69.019,48.167 69.083 C 48.258 69.140,48.333 69.332,48.333 69.510 C 48.333 69.688,48.403 69.833,48.489 69.833 C 48.574 69.833,48.692 69.983,48.750 70.167 C 48.808 70.350,48.963 70.500,49.095 70.500 C 49.226 70.500,49.333 70.575,49.333 70.667 C 49.333 70.888,49.953 71.500,50.177 71.500 C 50.274 71.500,50.306 71.576,50.249 71.669 C 50.191 71.762,50.372 71.883,50.656 71.939 C 50.937 71.996,51.167 72.107,51.167 72.188 C 51.167 72.268,51.954 72.333,52.917 72.333 C 53.972 72.333,54.667 72.267,54.667 72.167 C 54.667 72.075,54.805 72.000,54.974 72.000 C 55.328 72.000,56.000 71.469,56.000 71.189 C 56.000 71.085,56.112 71.000,56.250 71.000 C 56.387 71.000,56.500 70.896,56.500 70.768 C 56.500 70.640,56.612 70.492,56.750 70.440 C 56.887 70.387,57.000 70.186,57.000 69.993 C 57.000 69.801,57.112 69.530,57.250 69.393 C 57.465 69.178,57.500 68.042,57.500 61.238 C 57.500 56.079,57.558 53.333,57.667 53.333 C 57.758 53.333,57.833 53.108,57.833 52.833 C 57.833 52.450,57.909 52.333,58.157 52.333 C 58.335 52.333,58.527 52.258,58.583 52.167 C 58.640 52.075,59.132 52.000,59.677 52.000 C 60.226 52.000,60.667 52.074,60.667 52.167 M352.227 52.250 C 352.174 52.387,351.957 52.500,351.744 52.500 C 351.530 52.500,351.211 52.686,351.030 52.917 C 350.850 53.146,350.619 53.333,350.518 53.333 C 350.416 53.333,350.333 53.446,350.333 53.583 C 350.333 53.721,350.221 53.833,350.083 53.833 C 349.946 53.833,349.833 53.938,349.833 54.066 C 349.833 54.193,349.721 54.341,349.583 54.394 C 349.375 54.474,349.333 54.959,349.333 57.328 L 349.333 60.167 347.917 60.167 C 345.880 60.167,345.833 60.229,345.833 62.940 C 345.833 65.516,345.811 65.487,347.875 65.495 L 349.333 65.500 349.355 73.458 C 349.382 83.189,349.377 83.042,349.630 83.127 C 349.742 83.164,349.833 83.453,349.833 83.769 C 349.833 84.126,349.928 84.380,350.083 84.440 C 350.221 84.492,350.333 84.603,350.333 84.684 C 350.333 84.880,350.957 85.500,351.153 85.500 C 351.237 85.500,351.331 85.560,351.361 85.632 C 351.469 85.891,352.851 86.500,353.329 86.500 C 353.595 86.500,353.860 86.575,353.917 86.667 C 353.978 86.766,355.085 86.833,356.677 86.833 C 358.337 86.833,359.333 86.771,359.333 86.667 C 359.333 86.574,359.784 86.500,360.352 86.500 C 361.984 86.500,362.160 86.239,362.164 83.818 C 362.168 81.019,362.148 81.000,359.126 81.000 C 357.041 81.000,356.830 80.972,356.673 80.678 C 356.561 80.469,356.500 77.729,356.500 72.928 L 356.500 65.500 358.998 65.500 C 362.245 65.500,362.117 65.601,362.149 63.008 C 362.183 60.182,362.165 60.167,358.925 60.167 L 356.500 60.167 356.500 57.427 C 356.500 55.780,356.434 54.645,356.333 54.583 C 356.242 54.527,356.167 54.368,356.167 54.230 C 356.167 54.093,356.242 54.027,356.333 54.083 C 356.679 54.297,356.483 53.709,356.083 53.333 C 355.854 53.118,355.667 52.842,355.667 52.721 C 355.667 52.599,355.562 52.500,355.434 52.500 C 355.307 52.500,355.159 52.387,355.106 52.250 C 355.032 52.056,354.707 52.000,353.667 52.000 C 352.626 52.000,352.301 52.056,352.227 52.250 M152.417 59.500 C 152.360 59.592,151.941 59.667,151.485 59.667 C 150.902 59.667,150.628 59.741,150.560 59.917 C 150.498 60.080,150.238 60.167,149.816 60.167 C 149.384 60.167,149.167 60.242,149.167 60.390 C 149.167 60.513,148.887 60.757,148.544 60.932 C 147.876 61.273,145.167 63.858,145.167 64.155 C 145.167 64.253,145.054 64.333,144.917 64.333 C 144.764 64.333,144.667 64.489,144.667 64.732 C 144.667 64.952,144.554 65.174,144.417 65.227 C 144.279 65.280,144.167 65.513,144.167 65.745 C 144.167 65.977,144.100 66.167,144.018 66.167 C 143.936 66.167,143.822 66.354,143.765 66.583 C 143.707 66.813,143.587 67.000,143.497 67.000 C 143.407 67.000,143.333 67.300,143.333 67.667 C 143.333 68.136,143.262 68.333,143.093 68.333 C 142.889 68.333,142.850 69.063,142.838 73.083 C 142.826 77.238,142.856 77.833,143.079 77.833 C 143.271 77.833,143.333 78.027,143.333 78.628 C 143.333 79.223,143.501 79.757,144.000 80.750 C 144.367 81.480,144.667 82.156,144.667 82.253 C 144.667 82.349,145.046 82.801,145.510 83.256 C 145.974 83.711,146.661 84.402,147.037 84.792 C 147.413 85.181,147.859 85.500,148.027 85.500 C 148.196 85.500,148.333 85.612,148.333 85.750 C 148.333 85.906,148.491 86.000,148.750 86.000 C 149.009 86.000,149.167 86.094,149.167 86.250 C 149.167 86.431,149.352 86.500,149.833 86.500 C 150.200 86.500,150.500 86.575,150.500 86.667 C 150.500 86.762,151.000 86.833,151.667 86.833 C 152.593 86.833,152.833 86.885,152.833 87.083 C 152.833 87.288,153.120 87.333,154.417 87.333 C 155.713 87.333,156.000 87.288,156.000 87.083 C 156.000 86.882,156.259 86.833,157.333 86.833 C 158.111 86.833,158.667 86.764,158.667 86.667 C 158.667 86.575,158.857 86.500,159.089 86.500 C 159.321 86.500,159.554 86.388,159.606 86.250 C 159.659 86.112,159.882 86.000,160.101 86.000 C 160.345 86.000,160.500 85.903,160.500 85.750 C 160.500 85.612,160.578 85.500,160.674 85.500 C 160.871 85.500,160.897 85.479,162.482 83.984 C 163.639 82.894,165.000 80.745,165.000 80.010 C 165.000 79.841,165.106 79.662,165.235 79.612 C 165.394 79.551,165.466 79.268,165.458 78.741 C 165.450 78.178,165.524 77.917,165.723 77.805 C 166.113 77.587,166.149 69.093,165.761 68.944 C 165.626 68.892,165.498 68.576,165.469 68.218 C 165.426 67.699,165.346 67.573,165.029 67.528 C 164.788 67.494,164.673 67.390,164.726 67.253 C 164.849 66.931,164.479 66.532,164.000 66.470 C 163.485 66.404,163.289 65.675,163.780 65.654 C 163.955 65.646,163.995 65.605,163.875 65.556 C 163.748 65.505,163.667 65.152,163.667 64.653 C 163.667 64.035,163.605 63.833,163.417 63.833 C 163.279 63.833,163.167 63.764,163.167 63.679 C 163.167 63.479,162.187 62.500,161.987 62.500 C 161.903 62.500,161.833 62.387,161.833 62.250 C 161.833 62.112,161.721 62.000,161.583 62.000 C 161.446 62.000,161.333 61.896,161.333 61.769 C 161.333 61.642,161.052 61.406,160.708 61.244 C 160.365 61.082,159.918 60.774,159.716 60.558 C 159.465 60.290,159.163 60.167,158.758 60.167 C 158.343 60.167,158.167 60.092,158.167 59.917 C 158.167 59.725,157.954 59.667,157.250 59.667 C 156.746 59.667,156.333 59.592,156.333 59.500 C 156.333 59.399,155.587 59.333,154.427 59.333 C 153.335 59.333,152.476 59.405,152.417 59.500 M273.083 59.500 C 273.027 59.592,272.615 59.667,272.169 59.667 C 271.670 59.667,271.261 59.763,271.107 59.917 C 270.970 60.054,270.699 60.167,270.507 60.167 C 270.314 60.167,270.113 60.279,270.060 60.417 C 270.008 60.554,269.826 60.667,269.656 60.667 C 269.487 60.667,269.161 60.854,268.932 61.083 C 268.703 61.313,268.401 61.500,268.261 61.500 C 268.122 61.500,267.885 61.313,267.735 61.083 C 267.585 60.854,267.364 60.667,267.245 60.667 C 267.125 60.667,267.003 60.607,266.972 60.534 C 266.606 59.661,263.244 59.328,262.518 60.092 C 261.865 60.781,261.848 61.249,261.848 78.583 C 261.848 99.224,261.555 97.333,264.753 97.333 L 266.765 97.333 267.632 96.532 C 268.170 96.035,268.500 95.591,268.500 95.365 C 268.500 95.152,268.604 95.000,268.750 95.000 C 268.966 95.000,269.000 94.389,269.000 90.500 C 269.000 85.929,269.036 85.679,269.607 86.250 C 269.745 86.388,270.002 86.500,270.179 86.500 C 270.355 86.500,270.500 86.575,270.500 86.667 C 270.500 86.771,271.580 86.833,273.407 86.833 C 275.165 86.833,276.354 86.767,276.417 86.667 C 276.473 86.575,276.775 86.500,277.087 86.500 C 277.493 86.500,277.801 86.358,278.167 86.000 C 278.448 85.725,278.788 85.500,278.922 85.500 C 279.057 85.500,279.467 85.200,279.833 84.833 C 280.200 84.467,280.575 84.167,280.667 84.167 C 280.758 84.167,280.833 84.088,280.833 83.992 C 280.833 83.896,281.021 83.644,281.250 83.431 C 281.479 83.219,281.667 82.885,281.667 82.689 C 281.667 82.484,281.772 82.333,281.917 82.333 C 282.054 82.333,282.167 82.253,282.167 82.155 C 282.167 82.057,282.279 81.864,282.417 81.726 C 282.554 81.589,282.667 81.300,282.667 81.085 C 282.667 80.687,283.148 79.629,283.375 79.528 C 283.444 79.497,283.500 78.991,283.500 78.403 C 283.500 77.563,283.554 77.333,283.750 77.333 C 283.966 77.333,284.000 76.722,284.000 72.833 C 284.000 68.944,283.966 68.333,283.750 68.333 C 283.570 68.333,283.500 68.150,283.500 67.681 C 283.500 67.322,283.423 67.002,283.330 66.971 C 283.236 66.940,283.155 66.615,283.149 66.249 C 283.138 65.585,282.536 64.000,282.294 64.000 C 282.224 64.000,282.167 63.887,282.167 63.750 C 282.167 63.612,282.090 63.500,281.996 63.500 C 281.902 63.500,281.752 63.331,281.663 63.125 C 281.322 62.338,281.138 62.115,279.893 60.989 C 279.697 60.812,279.425 60.667,279.289 60.667 C 279.152 60.667,278.947 60.554,278.833 60.417 C 278.719 60.279,278.504 60.164,278.355 60.161 C 278.205 60.158,277.938 60.046,277.760 59.911 C 277.555 59.756,277.051 59.667,276.385 59.667 C 275.795 59.667,275.333 59.593,275.333 59.500 C 275.333 59.406,274.864 59.333,274.260 59.333 C 273.669 59.333,273.140 59.408,273.083 59.500 M198.542 60.068 L 198.167 60.464 198.167 73.361 C 198.167 86.077,198.171 86.263,198.502 86.546 C 198.890 86.879,204.500 86.991,204.500 86.667 C 204.500 86.575,204.612 86.500,204.750 86.500 C 204.969 86.500,205.000 85.378,205.000 77.405 C 205.000 67.726,204.975 68.022,205.799 67.761 C 206.001 67.697,206.167 67.574,206.167 67.489 C 206.167 67.403,206.278 67.333,206.413 67.333 C 206.549 67.333,206.707 67.146,206.765 66.917 C 206.853 66.564,206.967 66.500,207.498 66.500 C 207.853 66.500,208.216 66.391,208.333 66.250 C 208.475 66.080,208.853 66.000,209.520 66.000 C 210.280 66.000,210.500 66.056,210.500 66.250 C 210.500 66.387,210.594 66.501,210.708 66.501 C 211.288 66.505,211.333 67.228,211.333 76.530 L 211.333 85.661 211.903 86.247 L 212.472 86.833 215.069 86.833 C 216.690 86.833,217.667 86.771,217.667 86.667 C 217.667 86.575,217.779 86.500,217.917 86.500 C 218.054 86.500,218.167 86.388,218.167 86.250 C 218.167 86.112,218.267 86.000,218.390 86.000 C 218.953 86.000,219.000 85.263,219.000 76.510 L 219.000 67.869 219.417 67.765 C 219.646 67.707,219.833 67.587,219.833 67.497 C 219.833 67.407,219.912 67.333,220.008 67.333 C 220.104 67.333,220.356 67.146,220.569 66.917 C 220.824 66.641,221.134 66.500,221.483 66.500 C 221.798 66.500,222.049 66.399,222.106 66.250 C 222.225 65.941,224.167 65.884,224.167 66.189 C 224.167 66.293,224.353 66.551,224.580 66.761 L 224.993 67.144 225.005 75.331 C 225.015 82.322,225.052 83.530,225.258 83.610 C 225.420 83.672,225.500 83.952,225.500 84.459 C 225.500 85.255,225.923 85.828,227.036 86.543 C 227.548 86.872,230.727 86.973,230.917 86.667 C 230.973 86.575,231.192 86.500,231.403 86.500 C 231.970 86.500,233.081 85.387,233.094 84.805 C 233.100 84.528,233.017 84.333,232.892 84.333 C 232.703 84.333,232.508 71.095,232.646 67.622 C 232.669 67.041,232.609 66.801,232.422 66.729 C 232.236 66.658,232.167 66.386,232.167 65.732 C 232.167 65.238,232.098 64.833,232.015 64.833 C 231.931 64.833,231.812 64.533,231.750 64.167 C 231.688 63.800,231.569 63.500,231.485 63.500 C 231.402 63.500,231.333 63.423,231.333 63.328 C 231.333 63.023,228.333 60.167,228.013 60.167 C 227.842 60.167,227.659 60.054,227.606 59.917 C 227.527 59.710,227.078 59.667,225.000 59.667 C 222.922 59.667,222.473 59.710,222.394 59.917 C 222.332 60.078,222.074 60.167,221.667 60.167 C 221.260 60.167,221.002 60.255,220.940 60.417 C 220.887 60.554,220.654 60.667,220.422 60.667 C 220.190 60.667,220.000 60.737,220.000 60.822 C 220.000 60.908,219.851 61.025,219.670 61.082 C 219.488 61.140,219.037 61.477,218.668 61.832 C 218.300 62.186,217.867 62.501,217.707 62.531 C 217.547 62.562,217.393 62.755,217.363 62.960 C 217.301 63.397,216.922 63.446,216.542 63.066 C 216.316 62.840,216.308 62.744,216.493 62.441 C 216.612 62.244,216.653 62.137,216.583 62.203 C 216.460 62.318,215.833 61.655,215.833 61.409 C 215.833 61.343,215.646 61.114,215.417 60.902 C 215.188 60.690,215.000 60.437,215.000 60.341 C 215.000 60.245,214.783 60.167,214.518 60.167 C 214.243 60.167,213.994 60.059,213.940 59.917 C 213.860 59.710,213.411 59.667,211.333 59.667 C 209.256 59.667,208.806 59.710,208.727 59.917 C 208.664 60.080,208.405 60.167,207.982 60.167 C 207.517 60.167,207.333 60.237,207.333 60.417 C 207.333 60.554,207.221 60.667,207.083 60.667 C 206.946 60.667,206.833 60.740,206.833 60.830 C 206.833 60.920,206.646 61.041,206.417 61.098 C 206.188 61.156,206.000 61.270,206.000 61.351 C 206.000 61.433,205.810 61.500,205.578 61.500 C 205.346 61.500,205.113 61.612,205.060 61.750 C 204.898 62.173,203.667 61.368,203.667 60.839 C 203.667 60.744,203.554 60.667,203.417 60.667 C 203.279 60.667,203.167 60.554,203.167 60.417 C 203.167 60.279,203.062 60.167,202.934 60.167 C 202.807 60.167,202.659 60.054,202.606 59.917 C 202.425 59.444,199.013 59.571,198.542 60.068 M237.167 59.917 C 237.053 60.054,236.800 60.168,236.605 60.170 C 235.842 60.176,235.500 60.840,235.500 62.315 C 235.500 63.094,235.570 63.667,235.665 63.667 C 235.755 63.667,235.878 63.968,235.937 64.337 C 235.996 64.706,236.109 65.048,236.189 65.097 C 236.268 65.146,236.333 65.522,236.333 65.932 C 236.333 66.441,236.413 66.708,236.583 66.773 C 236.737 66.832,236.833 67.085,236.833 67.426 C 236.833 67.763,236.938 68.042,237.100 68.132 C 237.291 68.240,237.364 68.522,237.359 69.137 C 237.355 69.607,237.419 70.033,237.500 70.083 C 237.581 70.133,237.697 70.508,237.758 70.915 C 237.820 71.323,237.974 71.743,238.101 71.848 C 238.229 71.954,238.333 72.215,238.333 72.427 C 238.333 72.640,238.408 72.860,238.500 72.917 C 238.592 72.973,238.667 73.170,238.667 73.353 C 238.667 73.536,238.726 73.650,238.799 73.605 C 238.871 73.560,238.941 73.724,238.955 73.970 C 239.013 75.059,239.309 76.077,239.645 76.349 C 239.884 76.543,240.000 76.826,240.000 77.215 C 240.000 77.532,240.112 77.886,240.250 78.000 C 240.394 78.119,240.500 78.483,240.500 78.854 C 240.500 79.209,240.565 79.500,240.645 79.500 C 240.724 79.500,240.832 79.817,240.884 80.205 C 240.936 80.592,241.058 80.936,241.156 80.969 C 241.253 81.001,241.333 81.399,241.333 81.852 C 241.333 82.432,241.408 82.706,241.583 82.773 C 241.746 82.836,241.833 83.095,241.833 83.518 C 241.833 83.983,241.904 84.167,242.083 84.167 C 242.241 84.167,242.333 84.325,242.333 84.595 C 242.333 85.035,242.670 85.500,242.988 85.500 C 243.086 85.500,243.167 85.612,243.167 85.750 C 243.167 85.888,243.279 86.000,243.417 86.000 C 243.554 86.000,243.667 86.112,243.667 86.250 C 243.667 86.406,243.824 86.500,244.083 86.500 C 244.313 86.500,244.500 86.575,244.500 86.667 C 244.500 86.758,244.725 86.833,245.000 86.833 C 245.531 86.833,245.703 87.220,245.250 87.394 C 245.085 87.457,245.000 87.718,245.000 88.161 C 245.000 88.648,244.931 88.833,244.750 88.833 C 244.597 88.833,244.500 88.989,244.500 89.232 C 244.500 89.452,244.387 89.674,244.250 89.727 C 244.112 89.780,244.000 89.975,244.000 90.161 C 244.000 90.348,243.925 90.500,243.833 90.500 C 243.742 90.500,243.667 90.612,243.667 90.750 C 243.667 90.888,243.554 91.000,243.417 91.000 C 243.279 91.000,243.167 91.112,243.167 91.250 C 243.167 91.406,243.009 91.500,242.750 91.500 C 242.491 91.500,242.333 91.594,242.333 91.750 C 242.333 91.960,241.963 92.000,240.000 92.000 C 238.037 92.000,237.667 91.960,237.667 91.750 C 237.667 91.565,237.472 91.500,236.911 91.500 C 236.394 91.500,236.126 91.579,236.060 91.750 C 236.008 91.888,235.897 92.000,235.816 92.000 C 235.481 92.000,235.000 92.696,235.000 93.179 C 235.000 93.460,234.887 93.803,234.750 93.940 C 234.143 94.548,234.589 96.833,235.316 96.833 C 235.397 96.833,235.508 96.946,235.560 97.083 C 235.628 97.259,235.901 97.333,236.474 97.333 C 236.998 97.333,237.367 97.423,237.500 97.583 C 237.667 97.785,238.184 97.833,240.169 97.833 C 242.204 97.833,242.648 97.790,242.727 97.583 C 242.797 97.400,243.086 97.333,243.810 97.333 C 244.534 97.333,244.823 97.267,244.894 97.083 C 244.946 96.946,245.134 96.833,245.311 96.833 C 245.661 96.833,247.167 95.502,247.167 95.192 C 247.167 95.086,247.236 95.000,247.321 95.000 C 247.521 95.000,248.500 94.021,248.500 93.821 C 248.500 93.736,248.575 93.667,248.667 93.667 C 248.956 93.667,249.500 93.014,249.500 92.667 C 249.500 92.483,249.569 92.333,249.653 92.333 C 249.738 92.333,249.856 92.109,249.916 91.835 C 249.976 91.561,250.095 91.294,250.179 91.242 C 250.264 91.190,250.333 91.009,250.333 90.841 C 250.333 90.673,250.446 90.492,250.583 90.440 C 250.721 90.387,250.833 90.163,250.833 89.942 C 250.833 89.721,250.946 89.447,251.083 89.333 C 251.225 89.216,251.333 88.853,251.333 88.497 C 251.333 88.093,251.422 87.835,251.583 87.773 C 251.760 87.705,251.833 87.430,251.833 86.839 C 251.833 86.377,251.908 86.000,252.000 86.000 C 252.092 86.000,252.167 85.708,252.167 85.351 C 252.167 84.928,252.254 84.669,252.417 84.606 C 252.573 84.547,252.667 84.292,252.667 83.930 C 252.667 83.611,252.768 83.290,252.892 83.217 C 253.275 82.991,253.500 82.390,253.500 81.594 C 253.500 81.176,253.568 80.833,253.652 80.833 C 253.736 80.833,253.855 80.534,253.917 80.168 C 253.978 79.801,254.097 79.459,254.181 79.408 C 254.265 79.356,254.333 79.239,254.333 79.147 C 254.333 79.055,254.258 79.027,254.167 79.083 C 254.075 79.140,254.000 79.113,254.000 79.023 C 254.000 78.801,254.553 77.763,254.708 77.694 C 254.777 77.664,254.833 77.279,254.833 76.840 C 254.833 76.333,254.925 75.965,255.083 75.833 C 255.221 75.719,255.333 75.381,255.333 75.081 C 255.333 74.750,255.432 74.498,255.583 74.440 C 255.749 74.376,255.833 74.114,255.833 73.660 C 255.833 73.274,255.942 72.867,256.083 72.726 C 256.221 72.589,256.333 72.219,256.333 71.905 C 256.333 71.590,256.398 71.333,256.476 71.333 C 256.555 71.333,256.668 70.865,256.728 70.292 C 256.788 69.719,256.911 69.225,257.002 69.194 C 257.092 69.164,257.167 68.845,257.167 68.486 C 257.167 68.056,257.242 67.833,257.387 67.833 C 257.536 67.833,257.620 67.552,257.647 66.959 C 257.672 66.406,257.775 66.036,257.927 65.951 C 258.063 65.875,258.167 65.569,258.167 65.242 C 258.167 64.925,258.242 64.667,258.333 64.667 C 258.425 64.667,258.500 64.254,258.500 63.750 C 258.500 63.046,258.558 62.833,258.750 62.833 C 258.947 62.833,259.000 62.602,259.000 61.750 C 259.000 60.898,258.947 60.667,258.750 60.667 C 258.612 60.667,258.500 60.554,258.500 60.417 C 258.500 60.275,258.351 60.167,258.155 60.167 C 257.965 60.167,257.694 60.051,257.552 59.909 C 257.197 59.554,253.403 59.577,253.266 59.935 C 253.217 60.062,253.062 60.167,252.922 60.167 C 252.782 60.167,252.667 60.271,252.667 60.399 C 252.667 60.527,252.554 60.674,252.417 60.727 C 252.261 60.787,252.167 61.041,252.167 61.402 C 252.167 61.720,252.092 62.027,252.000 62.083 C 251.908 62.140,251.833 62.435,251.833 62.739 C 251.833 63.044,251.721 63.386,251.583 63.500 C 251.408 63.645,251.333 64.031,251.333 64.788 C 251.333 65.742,251.285 65.907,250.917 66.196 C 250.620 66.430,250.500 66.685,250.500 67.086 C 250.500 67.394,250.435 67.687,250.355 67.736 C 250.276 67.786,250.161 68.199,250.100 68.656 C 250.040 69.113,249.918 69.531,249.829 69.586 C 249.739 69.641,249.667 69.973,249.667 70.323 C 249.667 70.685,249.559 71.049,249.417 71.167 C 249.260 71.297,249.167 71.664,249.167 72.150 C 249.167 72.577,249.061 73.077,248.932 73.261 C 248.803 73.445,248.711 73.886,248.728 74.240 C 248.746 74.622,248.658 74.985,248.513 75.130 C 248.377 75.265,248.255 75.713,248.242 76.126 C 248.224 76.630,248.126 76.926,247.941 77.029 C 247.769 77.126,247.667 77.397,247.667 77.758 C 247.667 78.075,247.596 78.333,247.510 78.333 C 247.423 78.333,247.324 78.652,247.289 79.042 C 247.242 79.560,247.217 79.452,247.196 78.639 C 247.180 78.028,247.087 77.501,246.990 77.469 C 246.893 77.437,246.809 77.074,246.803 76.663 C 246.798 76.253,246.690 75.769,246.563 75.588 C 246.437 75.407,246.333 74.944,246.333 74.558 C 246.333 74.157,246.226 73.750,246.083 73.607 C 245.946 73.470,245.833 73.170,245.833 72.940 C 245.833 72.711,245.721 72.411,245.583 72.274 C 245.446 72.136,245.333 71.760,245.333 71.438 C 245.333 71.116,245.258 70.807,245.167 70.750 C 245.075 70.693,245.000 70.432,245.000 70.169 C 245.000 69.906,244.899 69.590,244.776 69.466 C 244.653 69.343,244.510 68.872,244.459 68.418 C 244.408 67.965,244.284 67.567,244.183 67.533 C 244.082 67.500,244.000 67.241,244.000 66.958 C 244.000 66.675,243.872 66.301,243.715 66.128 C 243.536 65.931,243.440 65.573,243.456 65.169 C 243.471 64.784,243.385 64.445,243.241 64.326 C 243.108 64.216,243.000 63.973,243.000 63.786 C 243.000 63.363,242.484 62.167,242.301 62.167 C 242.227 62.167,242.167 62.004,242.167 61.806 C 242.167 61.607,242.117 61.494,242.057 61.555 C 241.996 61.615,241.863 61.496,241.762 61.291 C 241.660 61.085,241.410 60.843,241.205 60.752 C 241.001 60.662,240.833 60.493,240.833 60.377 C 240.833 60.261,240.721 60.167,240.583 60.167 C 240.446 60.167,240.333 60.054,240.333 59.917 C 240.333 59.713,240.058 59.667,238.854 59.667 C 237.742 59.667,237.323 59.729,237.167 59.917 M289.560 59.917 C 289.508 60.054,289.360 60.167,289.232 60.167 C 289.104 60.167,289.000 60.245,289.000 60.340 C 289.000 60.435,288.700 60.799,288.333 61.148 C 287.595 61.850,287.275 64.167,287.917 64.167 C 288.083 64.167,288.167 64.333,288.167 64.667 C 288.167 64.942,288.242 65.167,288.333 65.167 C 288.425 65.167,288.500 65.319,288.500 65.505 C 288.500 65.691,288.612 65.887,288.750 65.940 C 288.968 66.024,289.000 67.313,289.000 76.147 C 289.000 86.072,289.006 86.265,289.335 86.546 C 289.723 86.878,294.833 86.990,294.833 86.667 C 294.833 86.575,294.946 86.500,295.083 86.500 C 295.221 86.500,295.333 86.396,295.333 86.268 C 295.333 86.140,295.446 85.992,295.583 85.940 C 295.801 85.856,295.833 84.793,295.833 77.773 L 295.833 69.702 296.247 69.309 C 296.475 69.093,296.662 68.783,296.664 68.619 C 296.667 68.263,297.527 67.384,297.950 67.305 C 298.115 67.273,298.324 67.080,298.415 66.874 C 298.573 66.514,298.662 66.500,300.711 66.500 C 302.453 66.500,302.861 66.454,302.940 66.250 C 302.992 66.112,303.140 66.000,303.268 66.000 C 303.396 66.000,303.500 65.887,303.500 65.750 C 303.500 65.612,303.612 65.500,303.750 65.500 C 303.892 65.500,304.000 65.351,304.000 65.155 C 304.000 64.965,304.108 64.702,304.240 64.570 C 304.373 64.437,304.475 64.032,304.470 63.657 C 304.451 62.322,304.856 62.570,304.963 63.959 C 305.052 65.132,305.407 65.491,306.482 65.496 C 307.718 65.503,307.655 64.984,307.661 75.292 C 307.665 81.768,307.720 84.500,307.847 84.500 C 307.960 84.500,307.986 84.685,307.917 84.998 C 307.796 85.551,308.329 86.500,308.761 86.500 C 308.893 86.500,309.000 86.575,309.000 86.667 C 309.000 86.990,314.111 86.878,314.498 86.546 C 314.952 86.158,315.034 63.558,314.583 63.107 C 314.446 62.970,314.333 62.745,314.333 62.607 C 314.333 62.018,312.192 60.167,311.511 60.167 C 311.094 60.167,310.835 60.079,310.773 59.917 C 310.696 59.715,310.311 59.667,308.767 59.667 C 307.292 59.667,306.800 59.724,306.607 59.917 C 306.470 60.054,306.246 60.167,306.109 60.167 C 305.973 60.167,305.699 60.373,305.502 60.625 C 305.304 60.877,305.196 60.971,305.262 60.833 C 305.346 60.659,305.328 60.634,305.202 60.750 C 305.102 60.842,304.992 61.254,304.956 61.667 L 304.892 62.417 304.862 61.617 C 304.837 60.926,304.750 60.740,304.223 60.257 L 303.612 59.698 301.137 59.675 C 299.047 59.656,298.646 59.693,298.563 59.910 C 298.509 60.051,298.285 60.167,298.066 60.167 C 297.822 60.167,297.667 60.264,297.667 60.417 C 297.667 60.554,297.584 60.667,297.482 60.667 C 297.381 60.667,297.154 60.849,296.979 61.072 C 296.804 61.295,296.493 61.503,296.288 61.534 C 296.084 61.566,295.935 61.683,295.958 61.796 C 295.981 61.908,295.856 62.000,295.681 62.000 C 295.486 62.000,295.275 62.195,295.140 62.500 C 294.870 63.109,294.572 63.144,294.432 62.583 C 294.374 62.354,294.253 62.167,294.163 62.167 C 294.074 62.167,294.000 62.071,294.000 61.954 C 294.000 61.715,293.418 61.167,293.165 61.167 C 293.074 61.167,293.000 61.054,293.000 60.917 C 293.000 60.764,292.845 60.667,292.601 60.667 C 292.382 60.667,292.159 60.554,292.106 60.417 C 292.054 60.279,291.853 60.167,291.660 60.167 C 291.467 60.167,291.197 60.054,291.060 59.917 C 290.922 59.779,290.550 59.667,290.233 59.667 C 289.874 59.667,289.620 59.761,289.560 59.917 M321.625 59.996 C 321.220 60.470,321.168 86.192,321.571 86.595 C 321.861 86.884,327.500 86.952,327.500 86.667 C 327.500 86.575,327.612 86.500,327.750 86.500 C 327.969 86.500,328.000 85.409,328.000 77.684 L 328.000 68.868 328.454 68.350 C 328.703 68.066,328.989 67.833,329.088 67.833 C 329.371 67.833,330.333 66.977,330.333 66.726 C 330.333 66.573,330.550 66.500,331.000 66.500 C 331.481 66.500,331.667 66.431,331.667 66.250 C 331.667 66.045,331.954 66.000,333.250 66.000 C 334.546 66.000,334.833 66.045,334.833 66.250 C 334.833 66.387,334.946 66.500,335.083 66.500 C 335.286 66.500,335.333 66.766,335.333 67.896 C 335.333 68.934,335.398 69.346,335.583 69.500 C 335.799 69.679,335.834 70.760,335.839 77.312 C 335.843 83.658,335.884 84.969,336.083 85.233 C 336.215 85.407,336.283 85.614,336.234 85.692 C 336.185 85.771,336.263 85.881,336.406 85.936 C 336.549 85.991,336.667 86.140,336.667 86.268 C 336.667 86.396,336.779 86.500,336.917 86.500 C 337.054 86.500,337.167 86.575,337.167 86.667 C 337.167 86.769,338.004 86.833,339.346 86.833 L 341.526 86.833 342.013 86.346 C 342.281 86.078,342.500 85.778,342.500 85.679 C 342.500 85.581,342.613 85.500,342.750 85.500 C 342.945 85.500,343.000 85.277,343.000 84.495 C 343.000 83.755,342.934 83.464,342.750 83.394 C 342.532 83.310,342.500 82.211,342.500 74.899 C 342.500 69.411,342.442 66.500,342.333 66.500 C 342.242 66.500,342.164 66.144,342.161 65.708 C 342.158 65.273,342.046 64.771,341.911 64.593 C 341.777 64.415,341.667 64.143,341.667 63.989 C 341.667 63.834,341.554 63.614,341.417 63.500 C 341.279 63.386,341.167 63.149,341.167 62.974 C 341.167 62.799,341.054 62.613,340.917 62.560 C 340.779 62.508,340.667 62.392,340.667 62.303 C 340.667 62.083,339.736 61.167,339.513 61.167 C 339.414 61.167,339.333 61.054,339.333 60.917 C 339.333 60.779,339.221 60.667,339.083 60.667 C 338.946 60.667,338.833 60.554,338.833 60.417 C 338.833 60.241,338.656 60.167,338.238 60.167 C 337.911 60.167,337.530 60.054,337.393 59.917 C 337.194 59.717,336.653 59.667,334.733 59.667 C 332.744 59.667,332.306 59.710,332.227 59.917 C 332.164 60.080,331.905 60.167,331.482 60.167 C 331.017 60.167,330.833 60.237,330.833 60.417 C 330.833 60.581,330.669 60.667,330.354 60.667 C 330.090 60.667,329.781 60.779,329.667 60.917 C 329.553 61.054,329.356 61.167,329.230 61.167 C 329.103 61.167,329.000 61.242,329.000 61.333 C 329.000 61.425,328.890 61.500,328.755 61.500 C 328.601 61.500,328.548 61.597,328.611 61.763 C 328.684 61.952,328.626 62.010,328.401 61.971 C 328.231 61.941,328.089 62.004,328.087 62.111 C 328.085 62.218,328.027 62.362,327.958 62.431 C 327.890 62.499,327.833 62.716,327.833 62.911 C 327.833 63.313,327.542 63.667,327.211 63.667 C 326.817 63.667,326.793 63.191,327.162 62.673 C 327.398 62.342,327.449 62.167,327.311 62.167 C 327.150 62.167,327.146 62.120,327.294 61.972 C 327.443 61.824,327.391 61.687,327.078 61.397 C 326.852 61.187,326.667 60.937,326.667 60.841 C 326.667 60.745,326.554 60.667,326.417 60.667 C 326.279 60.667,326.167 60.554,326.167 60.417 C 326.167 60.279,326.086 60.167,325.988 60.167 C 325.890 60.167,325.706 60.063,325.579 59.936 C 325.164 59.522,321.989 59.570,321.625 59.996 M155.583 65.333 C 155.640 65.425,155.828 65.500,156.002 65.500 C 156.359 65.500,157.763 66.851,157.920 67.344 C 157.976 67.521,158.092 67.667,158.178 67.667 C 158.263 67.667,158.333 68.070,158.333 68.563 C 158.333 69.056,158.446 69.729,158.583 70.058 C 158.936 70.901,158.936 77.050,158.583 77.667 C 158.452 77.896,158.342 78.255,158.339 78.464 C 158.333 78.835,157.969 79.526,157.544 79.970 C 157.428 80.091,157.333 80.265,157.333 80.357 C 157.333 80.606,156.892 81.000,156.613 81.000 C 156.479 81.000,156.324 81.116,156.270 81.258 C 156.145 81.583,152.333 81.597,152.333 81.272 C 152.333 81.167,152.127 80.989,151.875 80.875 C 151.411 80.666,150.645 79.306,150.397 78.250 C 150.332 77.975,150.142 77.652,149.973 77.532 C 149.621 77.282,149.486 69.500,149.833 69.500 C 149.925 69.500,150.000 69.387,150.000 69.250 C 150.000 69.112,150.067 69.000,150.148 69.000 C 150.230 69.000,150.348 68.727,150.410 68.392 C 150.607 67.343,152.162 65.500,152.851 65.500 C 153.025 65.500,153.167 65.425,153.167 65.333 C 153.167 65.238,153.663 65.167,154.323 65.167 C 154.960 65.167,155.527 65.242,155.583 65.333 M275.000 65.689 C 275.000 65.793,275.179 66.044,275.397 66.247 C 275.616 66.449,275.846 66.776,275.908 66.974 C 275.971 67.172,276.092 67.333,276.178 67.333 C 276.263 67.333,276.333 67.437,276.333 67.563 C 276.333 67.689,276.446 67.886,276.583 68.000 C 276.761 68.148,276.833 68.538,276.833 69.354 C 276.833 70.007,276.905 70.500,277.000 70.500 C 277.104 70.500,277.167 71.497,277.167 73.157 C 277.167 74.748,277.100 75.855,277.000 75.917 C 276.908 75.973,276.833 76.540,276.833 77.177 C 276.833 78.094,276.782 78.333,276.583 78.333 C 276.428 78.333,276.333 78.491,276.333 78.750 C 276.333 79.009,276.239 79.167,276.083 79.167 C 275.946 79.167,275.833 79.240,275.833 79.329 C 275.833 79.418,275.494 79.831,275.079 80.246 L 274.325 81.000 272.597 81.000 C 271.215 81.000,270.850 80.950,270.773 80.750 C 270.720 80.612,270.519 80.500,270.327 80.500 C 270.134 80.500,269.872 80.406,269.744 80.292 C 269.616 80.177,269.396 79.987,269.256 79.868 C 269.035 79.683,269.000 78.845,269.000 73.681 C 269.000 67.400,268.995 67.446,269.750 67.309 C 269.933 67.275,270.157 67.080,270.248 66.874 C 270.338 66.668,270.507 66.500,270.623 66.500 C 270.739 66.500,270.833 66.387,270.833 66.250 C 270.833 66.094,270.991 66.000,271.250 66.000 C 271.509 66.000,271.667 65.906,271.667 65.750 C 271.667 65.544,271.963 65.500,273.333 65.500 C 274.466 65.500,275.000 65.561,275.000 65.689 " stroke="none" fill="#ffffff" fill-rule="evenodd"></path><path id="path3" d="" stroke="none" fill="#ff00ff" fill-rule="evenodd"></path><path id="path4" d="" stroke="none" fill="#00ff00" fill-rule="evenodd"></path></g></svg>